<svg width="1812" height="36" viewBox="0 0 1812 36" fill="none" xmlns="http://www.w3.org/2000/svg">
<rect x="396" width="6" height="6" fill="black"/>
<rect x="6" y="6" width="6" height="6" fill="black"/>
<rect x="18" y="6" width="6" height="6" fill="black"/>
<rect x="24" y="6" width="6" height="6" fill="black"/>
<rect x="42" y="6" width="6" height="6" fill="black"/>
<rect x="54" y="6" width="6" height="6" fill="black"/>
<rect x="66" y="6" width="6" height="6" fill="black"/>
<rect x="72" y="6" width="6" height="6" fill="black"/>
<rect x="84" y="6" width="6" height="6" fill="black"/>
<rect x="90" y="6" width="6" height="6" fill="black"/>
<rect x="96" y="6" width="6" height="6" fill="black"/>
<rect x="102" y="6" width="6" height="6" fill="black"/>
<rect x="114" y="6" width="6" height="6" fill="black"/>
<rect x="120" y="6" width="6" height="6" fill="black"/>
<rect x="126" y="6" width="6" height="6" fill="black"/>
<rect x="132" y="6" width="6" height="6" fill="black"/>
<rect x="138" y="6" width="6" height="6" fill="black"/>
<rect x="144" y="6" width="6" height="6" fill="black"/>
<rect x="162" y="6" width="6" height="6" fill="black"/>
<rect x="168" y="6" width="6" height="6" fill="black"/>
<rect x="174" y="6" width="6" height="6" fill="black"/>
<rect x="180" y="6" width="6" height="6" fill="black"/>
<rect x="186" y="6" width="6" height="6" fill="black"/>
<rect x="192" y="6" width="6" height="6" fill="black"/>
<rect x="204" y="6" width="6" height="6" fill="black"/>
<rect x="210" y="6" width="6" height="6" fill="black"/>
<rect x="222" y="6" width="6" height="6" fill="black"/>
<rect x="234" y="6" width="6" height="6" fill="black"/>
<rect x="246" y="6" width="6" height="6" fill="black"/>
<rect x="252" y="6" width="6" height="6" fill="black"/>
<rect x="270" y="6" width="6" height="6" fill="black"/>
<rect x="276" y="6" width="6" height="6" fill="black"/>
<rect x="288" y="6" width="6" height="6" fill="black"/>
<rect x="300" y="6" width="6" height="6" fill="black"/>
<rect x="306" y="6" width="6" height="6" fill="black"/>
<rect x="318" y="6" width="6" height="6" fill="black"/>
<rect x="324" y="6" width="6" height="6" fill="black"/>
<rect x="336" y="6" width="6" height="6" fill="black"/>
<rect x="348" y="6" width="6" height="6" fill="black"/>
<rect x="354" y="6" width="6" height="6" fill="black"/>
<rect x="366" y="6" width="6" height="6" fill="black"/>
<rect x="372" y="6" width="6" height="6" fill="black"/>
<rect x="384" y="6" width="6" height="6" fill="black"/>
<rect x="390" y="6" width="6" height="6" fill="black"/>
<rect x="408" y="6" width="6" height="6" fill="black"/>
<rect x="414" y="6" width="6" height="6" fill="black"/>
<rect x="432" y="6" width="6" height="6" fill="black"/>
<rect x="438" y="6" width="6" height="6" fill="black"/>
<rect x="444" y="6" width="6" height="6" fill="black"/>
<rect x="450" y="6" width="6" height="6" fill="black"/>
<rect x="456" y="6" width="6" height="6" fill="black"/>
<rect x="462" y="6" width="6" height="6" fill="black"/>
<rect x="474" y="6" width="6" height="6" fill="black"/>
<rect x="480" y="6" width="6" height="6" fill="black"/>
<rect x="6" y="12" width="6" height="6" fill="black"/>
<rect x="18" y="12" width="6" height="6" fill="black"/>
<rect x="24" y="12" width="6" height="6" fill="black"/>
<rect x="36" y="12" width="6" height="6" fill="black"/>
<rect x="42" y="12" width="6" height="6" fill="black"/>
<rect x="54" y="12" width="6" height="6" fill="black"/>
<rect x="84" y="12" width="6" height="6" fill="black"/>
<rect x="90" y="12" width="6" height="6" fill="black"/>
<rect x="102" y="12" width="6" height="6" fill="black"/>
<rect x="114" y="12" width="6" height="6" fill="black"/>
<rect x="120" y="12" width="6" height="6" fill="black"/>
<rect x="126" y="12" width="6" height="6" fill="black"/>
<rect x="132" y="12" width="6" height="6" fill="black"/>
<rect x="138" y="12" width="6" height="6" fill="black"/>
<rect x="144" y="12" width="6" height="6" fill="black"/>
<rect x="162" y="12" width="6" height="6" fill="black"/>
<rect x="168" y="12" width="6" height="6" fill="black"/>
<rect x="186" y="12" width="6" height="6" fill="black"/>
<rect x="192" y="12" width="6" height="6" fill="black"/>
<rect x="204" y="12" width="6" height="6" fill="black"/>
<rect x="246" y="12" width="6" height="6" fill="black"/>
<rect x="252" y="12" width="6" height="6" fill="black"/>
<rect x="270" y="12" width="6" height="6" fill="black"/>
<rect x="288" y="12" width="6" height="6" fill="black"/>
<rect x="306" y="12" width="6" height="6" fill="black"/>
<rect x="318" y="12" width="6" height="6" fill="black"/>
<rect x="336" y="12" width="6" height="6" fill="black"/>
<rect x="354" y="12" width="6" height="6" fill="black"/>
<rect x="360" y="12" width="6" height="6" fill="black"/>
<rect x="366" y="12" width="6" height="6" fill="black"/>
<rect x="384" y="12" width="6" height="6" fill="black"/>
<rect x="408" y="12" width="6" height="6" fill="black"/>
<rect x="414" y="12" width="6" height="6" fill="black"/>
<rect x="420" y="12" width="6" height="6" fill="black"/>
<rect x="438" y="12" width="6" height="6" fill="black"/>
<rect x="444" y="12" width="6" height="6" fill="black"/>
<rect x="450" y="12" width="6" height="6" fill="black"/>
<rect x="456" y="12" width="6" height="6" fill="black"/>
<rect x="462" y="12" width="6" height="6" fill="black"/>
<rect x="474" y="12" width="6" height="6" fill="black"/>
<rect x="480" y="12" width="6" height="6" fill="black"/>
<rect y="24" width="6" height="6" fill="black"/>
<rect x="6" y="24" width="6" height="6" fill="black"/>
<rect x="12" y="24" width="6" height="6" fill="black"/>
<rect x="24" y="24" width="6" height="6" fill="black"/>
<rect x="30" y="24" width="6" height="6" fill="black"/>
<rect x="36" y="24" width="6" height="6" fill="black"/>
<rect x="42" y="24" width="6" height="6" fill="black"/>
<rect x="48" y="24" width="6" height="6" fill="black"/>
<rect x="60" y="24" width="6" height="6" fill="black"/>
<rect x="66" y="24" width="6" height="6" fill="black"/>
<rect x="78" y="24" width="6" height="6" fill="black"/>
<rect x="84" y="24" width="6" height="6" fill="black"/>
<rect x="90" y="24" width="6" height="6" fill="black"/>
<rect x="96" y="24" width="6" height="6" fill="black"/>
<rect x="108" y="24" width="6" height="6" fill="black"/>
<rect x="120" y="24" width="6" height="6" fill="black"/>
<rect x="126" y="24" width="6" height="6" fill="black"/>
<rect x="138" y="24" width="6" height="6" fill="black"/>
<rect x="144" y="24" width="6" height="6" fill="black"/>
<rect x="150" y="24" width="6" height="6" fill="black"/>
<rect x="156" y="24" width="6" height="6" fill="black"/>
<rect x="162" y="24" width="6" height="6" fill="black"/>
<rect x="174" y="24" width="6" height="6" fill="black"/>
<rect x="180" y="24" width="6" height="6" fill="black"/>
<rect x="186" y="24" width="6" height="6" fill="black"/>
<rect x="192" y="24" width="6" height="6" fill="black"/>
<rect x="204" y="24" width="6" height="6" fill="black"/>
<rect x="210" y="24" width="6" height="6" fill="black"/>
<rect x="216" y="24" width="6" height="6" fill="black"/>
<rect x="228" y="24" width="6" height="6" fill="black"/>
<rect x="234" y="24" width="6" height="6" fill="black"/>
<rect x="240" y="24" width="6" height="6" fill="black"/>
<rect x="252" y="24" width="6" height="6" fill="black"/>
<rect x="264" y="24" width="6" height="6" fill="black"/>
<rect x="276" y="24" width="6" height="6" fill="black"/>
<rect x="282" y="24" width="6" height="6" fill="black"/>
<rect x="294" y="24" width="6" height="6" fill="black"/>
<rect x="300" y="24" width="6" height="6" fill="black"/>
<rect x="306" y="24" width="6" height="6" fill="black"/>
<rect x="312" y="24" width="6" height="6" fill="black"/>
<rect x="318" y="24" width="6" height="6" fill="black"/>
<rect x="324" y="24" width="6" height="6" fill="black"/>
<rect x="330" y="24" width="6" height="6" fill="black"/>
<rect x="342" y="24" width="6" height="6" fill="black"/>
<rect x="348" y="24" width="6" height="6" fill="black"/>
<rect x="354" y="24" width="6" height="6" fill="black"/>
<rect x="360" y="24" width="6" height="6" fill="black"/>
<rect x="366" y="24" width="6" height="6" fill="black"/>
<rect x="372" y="24" width="6" height="6" fill="black"/>
<rect x="384" y="24" width="6" height="6" fill="black"/>
<rect x="390" y="24" width="6" height="6" fill="black"/>
<rect x="396" y="24" width="6" height="6" fill="black"/>
<rect x="402" y="24" width="6" height="6" fill="black"/>
<rect x="414" y="24" width="6" height="6" fill="black"/>
<rect x="426" y="24" width="6" height="6" fill="black"/>
<rect x="432" y="24" width="6" height="6" fill="black"/>
<rect x="438" y="24" width="6" height="6" fill="black"/>
<rect x="450" y="24" width="6" height="6" fill="black"/>
<rect x="468" y="24" width="6" height="6" fill="black"/>
<rect x="474" y="24" width="6" height="6" fill="black"/>
<rect x="480" y="24" width="6" height="6" fill="black"/>
<rect y="30" width="6" height="6" fill="black"/>
<rect x="6" y="30" width="6" height="6" fill="black"/>
<rect x="12" y="30" width="6" height="6" fill="black"/>
<rect x="24" y="30" width="6" height="6" fill="black"/>
<rect x="30" y="30" width="6" height="6" fill="black"/>
<rect x="36" y="30" width="6" height="6" fill="black"/>
<rect x="42" y="30" width="6" height="6" fill="black"/>
<rect x="60" y="30" width="6" height="6" fill="black"/>
<rect x="78" y="30" width="6" height="6" fill="black"/>
<rect x="84" y="30" width="6" height="6" fill="black"/>
<rect x="90" y="30" width="6" height="6" fill="black"/>
<rect x="108" y="30" width="6" height="6" fill="black"/>
<rect x="120" y="30" width="6" height="6" fill="black"/>
<rect x="126" y="30" width="6" height="6" fill="black"/>
<rect x="138" y="30" width="6" height="6" fill="black"/>
<rect x="144" y="30" width="6" height="6" fill="black"/>
<rect x="150" y="30" width="6" height="6" fill="black"/>
<rect x="156" y="30" width="6" height="6" fill="black"/>
<rect x="162" y="30" width="6" height="6" fill="black"/>
<rect x="174" y="30" width="6" height="6" fill="black"/>
<rect x="180" y="30" width="6" height="6" fill="black"/>
<rect x="186" y="30" width="6" height="6" fill="black"/>
<rect x="192" y="30" width="6" height="6" fill="black"/>
<rect x="216" y="30" width="6" height="6" fill="black"/>
<rect x="228" y="30" width="6" height="6" fill="black"/>
<rect x="234" y="30" width="6" height="6" fill="black"/>
<rect x="240" y="30" width="6" height="6" fill="black"/>
<rect x="252" y="30" width="6" height="6" fill="black"/>
<rect x="264" y="30" width="6" height="6" fill="black"/>
<rect x="276" y="30" width="6" height="6" fill="black"/>
<rect x="282" y="30" width="6" height="6" fill="black"/>
<rect x="288" y="30" width="6" height="6" fill="black"/>
<rect x="294" y="30" width="6" height="6" fill="black"/>
<rect x="300" y="30" width="6" height="6" fill="black"/>
<rect x="312" y="30" width="6" height="6" fill="black"/>
<rect x="318" y="30" width="6" height="6" fill="black"/>
<rect x="330" y="30" width="6" height="6" fill="black"/>
<rect x="342" y="30" width="6" height="6" fill="black"/>
<rect x="348" y="30" width="6" height="6" fill="black"/>
<rect x="354" y="30" width="6" height="6" fill="black"/>
<rect x="360" y="30" width="6" height="6" fill="black"/>
<rect x="366" y="30" width="6" height="6" fill="black"/>
<rect x="372" y="30" width="6" height="6" fill="black"/>
<rect x="384" y="30" width="6" height="6" fill="black"/>
<rect x="390" y="30" width="6" height="6" fill="black"/>
<rect x="396" y="30" width="6" height="6" fill="black"/>
<rect x="402" y="30" width="6" height="6" fill="black"/>
<rect x="414" y="30" width="6" height="6" fill="black"/>
<rect x="432" y="30" width="6" height="6" fill="black"/>
<rect x="438" y="30" width="6" height="6" fill="black"/>
<rect x="444" y="30" width="6" height="6" fill="black"/>
<rect x="450" y="30" width="6" height="6" fill="black"/>
<rect x="462" y="30" width="6" height="6" fill="black"/>
<rect x="468" y="30" width="6" height="6" fill="black"/>
<rect x="474" y="30" width="6" height="6" fill="black"/>
<rect x="480" y="30" width="6" height="6" fill="black"/>
<rect x="816" width="6" height="6" fill="black"/>
<rect x="426" y="6" width="6" height="6" fill="black"/>
<rect x="438" y="6" width="6" height="6" fill="black"/>
<rect x="444" y="6" width="6" height="6" fill="black"/>
<rect x="462" y="6" width="6" height="6" fill="black"/>
<rect x="474" y="6" width="6" height="6" fill="black"/>
<rect x="486" y="6" width="6" height="6" fill="black"/>
<rect x="492" y="6" width="6" height="6" fill="black"/>
<rect x="504" y="6" width="6" height="6" fill="black"/>
<rect x="510" y="6" width="6" height="6" fill="black"/>
<rect x="516" y="6" width="6" height="6" fill="black"/>
<rect x="522" y="6" width="6" height="6" fill="black"/>
<rect x="534" y="6" width="6" height="6" fill="black"/>
<rect x="540" y="6" width="6" height="6" fill="black"/>
<rect x="546" y="6" width="6" height="6" fill="black"/>
<rect x="552" y="6" width="6" height="6" fill="black"/>
<rect x="558" y="6" width="6" height="6" fill="black"/>
<rect x="564" y="6" width="6" height="6" fill="black"/>
<rect x="582" y="6" width="6" height="6" fill="black"/>
<rect x="588" y="6" width="6" height="6" fill="black"/>
<rect x="594" y="6" width="6" height="6" fill="black"/>
<rect x="600" y="6" width="6" height="6" fill="black"/>
<rect x="606" y="6" width="6" height="6" fill="black"/>
<rect x="612" y="6" width="6" height="6" fill="black"/>
<rect x="624" y="6" width="6" height="6" fill="black"/>
<rect x="630" y="6" width="6" height="6" fill="black"/>
<rect x="642" y="6" width="6" height="6" fill="black"/>
<rect x="654" y="6" width="6" height="6" fill="black"/>
<rect x="666" y="6" width="6" height="6" fill="black"/>
<rect x="672" y="6" width="6" height="6" fill="black"/>
<rect x="690" y="6" width="6" height="6" fill="black"/>
<rect x="696" y="6" width="6" height="6" fill="black"/>
<rect x="708" y="6" width="6" height="6" fill="black"/>
<rect x="720" y="6" width="6" height="6" fill="black"/>
<rect x="726" y="6" width="6" height="6" fill="black"/>
<rect x="738" y="6" width="6" height="6" fill="black"/>
<rect x="744" y="6" width="6" height="6" fill="black"/>
<rect x="756" y="6" width="6" height="6" fill="black"/>
<rect x="768" y="6" width="6" height="6" fill="black"/>
<rect x="774" y="6" width="6" height="6" fill="black"/>
<rect x="786" y="6" width="6" height="6" fill="black"/>
<rect x="792" y="6" width="6" height="6" fill="black"/>
<rect x="804" y="6" width="6" height="6" fill="black"/>
<rect x="810" y="6" width="6" height="6" fill="black"/>
<rect x="828" y="6" width="6" height="6" fill="black"/>
<rect x="834" y="6" width="6" height="6" fill="black"/>
<rect x="852" y="6" width="6" height="6" fill="black"/>
<rect x="858" y="6" width="6" height="6" fill="black"/>
<rect x="864" y="6" width="6" height="6" fill="black"/>
<rect x="870" y="6" width="6" height="6" fill="black"/>
<rect x="876" y="6" width="6" height="6" fill="black"/>
<rect x="882" y="6" width="6" height="6" fill="black"/>
<rect x="894" y="6" width="6" height="6" fill="black"/>
<rect x="900" y="6" width="6" height="6" fill="black"/>
<rect x="426" y="12" width="6" height="6" fill="black"/>
<rect x="438" y="12" width="6" height="6" fill="black"/>
<rect x="444" y="12" width="6" height="6" fill="black"/>
<rect x="456" y="12" width="6" height="6" fill="black"/>
<rect x="462" y="12" width="6" height="6" fill="black"/>
<rect x="474" y="12" width="6" height="6" fill="black"/>
<rect x="504" y="12" width="6" height="6" fill="black"/>
<rect x="510" y="12" width="6" height="6" fill="black"/>
<rect x="522" y="12" width="6" height="6" fill="black"/>
<rect x="534" y="12" width="6" height="6" fill="black"/>
<rect x="540" y="12" width="6" height="6" fill="black"/>
<rect x="546" y="12" width="6" height="6" fill="black"/>
<rect x="552" y="12" width="6" height="6" fill="black"/>
<rect x="558" y="12" width="6" height="6" fill="black"/>
<rect x="564" y="12" width="6" height="6" fill="black"/>
<rect x="582" y="12" width="6" height="6" fill="black"/>
<rect x="588" y="12" width="6" height="6" fill="black"/>
<rect x="606" y="12" width="6" height="6" fill="black"/>
<rect x="612" y="12" width="6" height="6" fill="black"/>
<rect x="624" y="12" width="6" height="6" fill="black"/>
<rect x="666" y="12" width="6" height="6" fill="black"/>
<rect x="672" y="12" width="6" height="6" fill="black"/>
<rect x="690" y="12" width="6" height="6" fill="black"/>
<rect x="708" y="12" width="6" height="6" fill="black"/>
<rect x="726" y="12" width="6" height="6" fill="black"/>
<rect x="738" y="12" width="6" height="6" fill="black"/>
<rect x="756" y="12" width="6" height="6" fill="black"/>
<rect x="774" y="12" width="6" height="6" fill="black"/>
<rect x="780" y="12" width="6" height="6" fill="black"/>
<rect x="786" y="12" width="6" height="6" fill="black"/>
<rect x="804" y="12" width="6" height="6" fill="black"/>
<rect x="828" y="12" width="6" height="6" fill="black"/>
<rect x="834" y="12" width="6" height="6" fill="black"/>
<rect x="840" y="12" width="6" height="6" fill="black"/>
<rect x="858" y="12" width="6" height="6" fill="black"/>
<rect x="864" y="12" width="6" height="6" fill="black"/>
<rect x="870" y="12" width="6" height="6" fill="black"/>
<rect x="876" y="12" width="6" height="6" fill="black"/>
<rect x="882" y="12" width="6" height="6" fill="black"/>
<rect x="894" y="12" width="6" height="6" fill="black"/>
<rect x="900" y="12" width="6" height="6" fill="black"/>
<rect x="420" y="24" width="6" height="6" fill="black"/>
<rect x="426" y="24" width="6" height="6" fill="black"/>
<rect x="432" y="24" width="6" height="6" fill="black"/>
<rect x="444" y="24" width="6" height="6" fill="black"/>
<rect x="450" y="24" width="6" height="6" fill="black"/>
<rect x="456" y="24" width="6" height="6" fill="black"/>
<rect x="462" y="24" width="6" height="6" fill="black"/>
<rect x="468" y="24" width="6" height="6" fill="black"/>
<rect x="480" y="24" width="6" height="6" fill="black"/>
<rect x="486" y="24" width="6" height="6" fill="black"/>
<rect x="498" y="24" width="6" height="6" fill="black"/>
<rect x="504" y="24" width="6" height="6" fill="black"/>
<rect x="510" y="24" width="6" height="6" fill="black"/>
<rect x="516" y="24" width="6" height="6" fill="black"/>
<rect x="528" y="24" width="6" height="6" fill="black"/>
<rect x="540" y="24" width="6" height="6" fill="black"/>
<rect x="546" y="24" width="6" height="6" fill="black"/>
<rect x="558" y="24" width="6" height="6" fill="black"/>
<rect x="564" y="24" width="6" height="6" fill="black"/>
<rect x="570" y="24" width="6" height="6" fill="black"/>
<rect x="576" y="24" width="6" height="6" fill="black"/>
<rect x="582" y="24" width="6" height="6" fill="black"/>
<rect x="594" y="24" width="6" height="6" fill="black"/>
<rect x="600" y="24" width="6" height="6" fill="black"/>
<rect x="606" y="24" width="6" height="6" fill="black"/>
<rect x="612" y="24" width="6" height="6" fill="black"/>
<rect x="624" y="24" width="6" height="6" fill="black"/>
<rect x="630" y="24" width="6" height="6" fill="black"/>
<rect x="636" y="24" width="6" height="6" fill="black"/>
<rect x="648" y="24" width="6" height="6" fill="black"/>
<rect x="654" y="24" width="6" height="6" fill="black"/>
<rect x="660" y="24" width="6" height="6" fill="black"/>
<rect x="672" y="24" width="6" height="6" fill="black"/>
<rect x="684" y="24" width="6" height="6" fill="black"/>
<rect x="696" y="24" width="6" height="6" fill="black"/>
<rect x="702" y="24" width="6" height="6" fill="black"/>
<rect x="714" y="24" width="6" height="6" fill="black"/>
<rect x="720" y="24" width="6" height="6" fill="black"/>
<rect x="726" y="24" width="6" height="6" fill="black"/>
<rect x="732" y="24" width="6" height="6" fill="black"/>
<rect x="738" y="24" width="6" height="6" fill="black"/>
<rect x="744" y="24" width="6" height="6" fill="black"/>
<rect x="750" y="24" width="6" height="6" fill="black"/>
<rect x="762" y="24" width="6" height="6" fill="black"/>
<rect x="768" y="24" width="6" height="6" fill="black"/>
<rect x="774" y="24" width="6" height="6" fill="black"/>
<rect x="780" y="24" width="6" height="6" fill="black"/>
<rect x="786" y="24" width="6" height="6" fill="black"/>
<rect x="792" y="24" width="6" height="6" fill="black"/>
<rect x="804" y="24" width="6" height="6" fill="black"/>
<rect x="810" y="24" width="6" height="6" fill="black"/>
<rect x="816" y="24" width="6" height="6" fill="black"/>
<rect x="822" y="24" width="6" height="6" fill="black"/>
<rect x="834" y="24" width="6" height="6" fill="black"/>
<rect x="846" y="24" width="6" height="6" fill="black"/>
<rect x="852" y="24" width="6" height="6" fill="black"/>
<rect x="858" y="24" width="6" height="6" fill="black"/>
<rect x="870" y="24" width="6" height="6" fill="black"/>
<rect x="888" y="24" width="6" height="6" fill="black"/>
<rect x="894" y="24" width="6" height="6" fill="black"/>
<rect x="900" y="24" width="6" height="6" fill="black"/>
<rect x="420" y="30" width="6" height="6" fill="black"/>
<rect x="426" y="30" width="6" height="6" fill="black"/>
<rect x="432" y="30" width="6" height="6" fill="black"/>
<rect x="444" y="30" width="6" height="6" fill="black"/>
<rect x="450" y="30" width="6" height="6" fill="black"/>
<rect x="456" y="30" width="6" height="6" fill="black"/>
<rect x="462" y="30" width="6" height="6" fill="black"/>
<rect x="480" y="30" width="6" height="6" fill="black"/>
<rect x="498" y="30" width="6" height="6" fill="black"/>
<rect x="504" y="30" width="6" height="6" fill="black"/>
<rect x="510" y="30" width="6" height="6" fill="black"/>
<rect x="528" y="30" width="6" height="6" fill="black"/>
<rect x="540" y="30" width="6" height="6" fill="black"/>
<rect x="546" y="30" width="6" height="6" fill="black"/>
<rect x="558" y="30" width="6" height="6" fill="black"/>
<rect x="564" y="30" width="6" height="6" fill="black"/>
<rect x="570" y="30" width="6" height="6" fill="black"/>
<rect x="576" y="30" width="6" height="6" fill="black"/>
<rect x="582" y="30" width="6" height="6" fill="black"/>
<rect x="594" y="30" width="6" height="6" fill="black"/>
<rect x="600" y="30" width="6" height="6" fill="black"/>
<rect x="606" y="30" width="6" height="6" fill="black"/>
<rect x="612" y="30" width="6" height="6" fill="black"/>
<rect x="636" y="30" width="6" height="6" fill="black"/>
<rect x="648" y="30" width="6" height="6" fill="black"/>
<rect x="654" y="30" width="6" height="6" fill="black"/>
<rect x="660" y="30" width="6" height="6" fill="black"/>
<rect x="672" y="30" width="6" height="6" fill="black"/>
<rect x="684" y="30" width="6" height="6" fill="black"/>
<rect x="696" y="30" width="6" height="6" fill="black"/>
<rect x="702" y="30" width="6" height="6" fill="black"/>
<rect x="708" y="30" width="6" height="6" fill="black"/>
<rect x="714" y="30" width="6" height="6" fill="black"/>
<rect x="720" y="30" width="6" height="6" fill="black"/>
<rect x="732" y="30" width="6" height="6" fill="black"/>
<rect x="738" y="30" width="6" height="6" fill="black"/>
<rect x="750" y="30" width="6" height="6" fill="black"/>
<rect x="762" y="30" width="6" height="6" fill="black"/>
<rect x="768" y="30" width="6" height="6" fill="black"/>
<rect x="774" y="30" width="6" height="6" fill="black"/>
<rect x="780" y="30" width="6" height="6" fill="black"/>
<rect x="786" y="30" width="6" height="6" fill="black"/>
<rect x="792" y="30" width="6" height="6" fill="black"/>
<rect x="804" y="30" width="6" height="6" fill="black"/>
<rect x="810" y="30" width="6" height="6" fill="black"/>
<rect x="816" y="30" width="6" height="6" fill="black"/>
<rect x="822" y="30" width="6" height="6" fill="black"/>
<rect x="834" y="30" width="6" height="6" fill="black"/>
<rect x="852" y="30" width="6" height="6" fill="black"/>
<rect x="858" y="30" width="6" height="6" fill="black"/>
<rect x="864" y="30" width="6" height="6" fill="black"/>
<rect x="870" y="30" width="6" height="6" fill="black"/>
<rect x="882" y="30" width="6" height="6" fill="black"/>
<rect x="888" y="30" width="6" height="6" fill="black"/>
<rect x="894" y="30" width="6" height="6" fill="black"/>
<rect x="900" y="30" width="6" height="6" fill="black"/>
<rect x="1302" width="6" height="6" fill="black"/>
<rect x="912" y="6" width="6" height="6" fill="black"/>
<rect x="924" y="6" width="6" height="6" fill="black"/>
<rect x="930" y="6" width="6" height="6" fill="black"/>
<rect x="948" y="6" width="6" height="6" fill="black"/>
<rect x="960" y="6" width="6" height="6" fill="black"/>
<rect x="972" y="6" width="6" height="6" fill="black"/>
<rect x="978" y="6" width="6" height="6" fill="black"/>
<rect x="990" y="6" width="6" height="6" fill="black"/>
<rect x="996" y="6" width="6" height="6" fill="black"/>
<rect x="1002" y="6" width="6" height="6" fill="black"/>
<rect x="1008" y="6" width="6" height="6" fill="black"/>
<rect x="1020" y="6" width="6" height="6" fill="black"/>
<rect x="1026" y="6" width="6" height="6" fill="black"/>
<rect x="1032" y="6" width="6" height="6" fill="black"/>
<rect x="1038" y="6" width="6" height="6" fill="black"/>
<rect x="1044" y="6" width="6" height="6" fill="black"/>
<rect x="1050" y="6" width="6" height="6" fill="black"/>
<rect x="1068" y="6" width="6" height="6" fill="black"/>
<rect x="1074" y="6" width="6" height="6" fill="black"/>
<rect x="1080" y="6" width="6" height="6" fill="black"/>
<rect x="1086" y="6" width="6" height="6" fill="black"/>
<rect x="1092" y="6" width="6" height="6" fill="black"/>
<rect x="1098" y="6" width="6" height="6" fill="black"/>
<rect x="1110" y="6" width="6" height="6" fill="black"/>
<rect x="1116" y="6" width="6" height="6" fill="black"/>
<rect x="1128" y="6" width="6" height="6" fill="black"/>
<rect x="1140" y="6" width="6" height="6" fill="black"/>
<rect x="1152" y="6" width="6" height="6" fill="black"/>
<rect x="1158" y="6" width="6" height="6" fill="black"/>
<rect x="1176" y="6" width="6" height="6" fill="black"/>
<rect x="1182" y="6" width="6" height="6" fill="black"/>
<rect x="1194" y="6" width="6" height="6" fill="black"/>
<rect x="1206" y="6" width="6" height="6" fill="black"/>
<rect x="1212" y="6" width="6" height="6" fill="black"/>
<rect x="1224" y="6" width="6" height="6" fill="black"/>
<rect x="1230" y="6" width="6" height="6" fill="black"/>
<rect x="1242" y="6" width="6" height="6" fill="black"/>
<rect x="1254" y="6" width="6" height="6" fill="black"/>
<rect x="1260" y="6" width="6" height="6" fill="black"/>
<rect x="1272" y="6" width="6" height="6" fill="black"/>
<rect x="1278" y="6" width="6" height="6" fill="black"/>
<rect x="1290" y="6" width="6" height="6" fill="black"/>
<rect x="1296" y="6" width="6" height="6" fill="black"/>
<rect x="1314" y="6" width="6" height="6" fill="black"/>
<rect x="1320" y="6" width="6" height="6" fill="black"/>
<rect x="1338" y="6" width="6" height="6" fill="black"/>
<rect x="1344" y="6" width="6" height="6" fill="black"/>
<rect x="1350" y="6" width="6" height="6" fill="black"/>
<rect x="1356" y="6" width="6" height="6" fill="black"/>
<rect x="1362" y="6" width="6" height="6" fill="black"/>
<rect x="1368" y="6" width="6" height="6" fill="black"/>
<rect x="1380" y="6" width="6" height="6" fill="black"/>
<rect x="1386" y="6" width="6" height="6" fill="black"/>
<rect x="912" y="12" width="6" height="6" fill="black"/>
<rect x="924" y="12" width="6" height="6" fill="black"/>
<rect x="930" y="12" width="6" height="6" fill="black"/>
<rect x="942" y="12" width="6" height="6" fill="black"/>
<rect x="948" y="12" width="6" height="6" fill="black"/>
<rect x="960" y="12" width="6" height="6" fill="black"/>
<rect x="990" y="12" width="6" height="6" fill="black"/>
<rect x="996" y="12" width="6" height="6" fill="black"/>
<rect x="1008" y="12" width="6" height="6" fill="black"/>
<rect x="1020" y="12" width="6" height="6" fill="black"/>
<rect x="1026" y="12" width="6" height="6" fill="black"/>
<rect x="1032" y="12" width="6" height="6" fill="black"/>
<rect x="1038" y="12" width="6" height="6" fill="black"/>
<rect x="1044" y="12" width="6" height="6" fill="black"/>
<rect x="1050" y="12" width="6" height="6" fill="black"/>
<rect x="1068" y="12" width="6" height="6" fill="black"/>
<rect x="1074" y="12" width="6" height="6" fill="black"/>
<rect x="1092" y="12" width="6" height="6" fill="black"/>
<rect x="1098" y="12" width="6" height="6" fill="black"/>
<rect x="1110" y="12" width="6" height="6" fill="black"/>
<rect x="1152" y="12" width="6" height="6" fill="black"/>
<rect x="1158" y="12" width="6" height="6" fill="black"/>
<rect x="1176" y="12" width="6" height="6" fill="black"/>
<rect x="1194" y="12" width="6" height="6" fill="black"/>
<rect x="1212" y="12" width="6" height="6" fill="black"/>
<rect x="1224" y="12" width="6" height="6" fill="black"/>
<rect x="1242" y="12" width="6" height="6" fill="black"/>
<rect x="1260" y="12" width="6" height="6" fill="black"/>
<rect x="1266" y="12" width="6" height="6" fill="black"/>
<rect x="1272" y="12" width="6" height="6" fill="black"/>
<rect x="1290" y="12" width="6" height="6" fill="black"/>
<rect x="1314" y="12" width="6" height="6" fill="black"/>
<rect x="1320" y="12" width="6" height="6" fill="black"/>
<rect x="1326" y="12" width="6" height="6" fill="black"/>
<rect x="1344" y="12" width="6" height="6" fill="black"/>
<rect x="1350" y="12" width="6" height="6" fill="black"/>
<rect x="1356" y="12" width="6" height="6" fill="black"/>
<rect x="1362" y="12" width="6" height="6" fill="black"/>
<rect x="1368" y="12" width="6" height="6" fill="black"/>
<rect x="1380" y="12" width="6" height="6" fill="black"/>
<rect x="1386" y="12" width="6" height="6" fill="black"/>
<rect x="906" y="24" width="6" height="6" fill="black"/>
<rect x="912" y="24" width="6" height="6" fill="black"/>
<rect x="918" y="24" width="6" height="6" fill="black"/>
<rect x="930" y="24" width="6" height="6" fill="black"/>
<rect x="936" y="24" width="6" height="6" fill="black"/>
<rect x="942" y="24" width="6" height="6" fill="black"/>
<rect x="948" y="24" width="6" height="6" fill="black"/>
<rect x="954" y="24" width="6" height="6" fill="black"/>
<rect x="966" y="24" width="6" height="6" fill="black"/>
<rect x="972" y="24" width="6" height="6" fill="black"/>
<rect x="984" y="24" width="6" height="6" fill="black"/>
<rect x="990" y="24" width="6" height="6" fill="black"/>
<rect x="996" y="24" width="6" height="6" fill="black"/>
<rect x="1002" y="24" width="6" height="6" fill="black"/>
<rect x="1014" y="24" width="6" height="6" fill="black"/>
<rect x="1026" y="24" width="6" height="6" fill="black"/>
<rect x="1032" y="24" width="6" height="6" fill="black"/>
<rect x="1044" y="24" width="6" height="6" fill="black"/>
<rect x="1050" y="24" width="6" height="6" fill="black"/>
<rect x="1056" y="24" width="6" height="6" fill="black"/>
<rect x="1062" y="24" width="6" height="6" fill="black"/>
<rect x="1068" y="24" width="6" height="6" fill="black"/>
<rect x="1080" y="24" width="6" height="6" fill="black"/>
<rect x="1086" y="24" width="6" height="6" fill="black"/>
<rect x="1092" y="24" width="6" height="6" fill="black"/>
<rect x="1098" y="24" width="6" height="6" fill="black"/>
<rect x="1110" y="24" width="6" height="6" fill="black"/>
<rect x="1116" y="24" width="6" height="6" fill="black"/>
<rect x="1122" y="24" width="6" height="6" fill="black"/>
<rect x="1134" y="24" width="6" height="6" fill="black"/>
<rect x="1140" y="24" width="6" height="6" fill="black"/>
<rect x="1146" y="24" width="6" height="6" fill="black"/>
<rect x="1158" y="24" width="6" height="6" fill="black"/>
<rect x="1170" y="24" width="6" height="6" fill="black"/>
<rect x="1182" y="24" width="6" height="6" fill="black"/>
<rect x="1188" y="24" width="6" height="6" fill="black"/>
<rect x="1200" y="24" width="6" height="6" fill="black"/>
<rect x="1206" y="24" width="6" height="6" fill="black"/>
<rect x="1212" y="24" width="6" height="6" fill="black"/>
<rect x="1218" y="24" width="6" height="6" fill="black"/>
<rect x="1224" y="24" width="6" height="6" fill="black"/>
<rect x="1230" y="24" width="6" height="6" fill="black"/>
<rect x="1236" y="24" width="6" height="6" fill="black"/>
<rect x="1248" y="24" width="6" height="6" fill="black"/>
<rect x="1254" y="24" width="6" height="6" fill="black"/>
<rect x="1260" y="24" width="6" height="6" fill="black"/>
<rect x="1266" y="24" width="6" height="6" fill="black"/>
<rect x="1272" y="24" width="6" height="6" fill="black"/>
<rect x="1278" y="24" width="6" height="6" fill="black"/>
<rect x="1290" y="24" width="6" height="6" fill="black"/>
<rect x="1296" y="24" width="6" height="6" fill="black"/>
<rect x="1302" y="24" width="6" height="6" fill="black"/>
<rect x="1308" y="24" width="6" height="6" fill="black"/>
<rect x="1320" y="24" width="6" height="6" fill="black"/>
<rect x="1332" y="24" width="6" height="6" fill="black"/>
<rect x="1338" y="24" width="6" height="6" fill="black"/>
<rect x="1344" y="24" width="6" height="6" fill="black"/>
<rect x="1356" y="24" width="6" height="6" fill="black"/>
<rect x="1374" y="24" width="6" height="6" fill="black"/>
<rect x="1380" y="24" width="6" height="6" fill="black"/>
<rect x="1386" y="24" width="6" height="6" fill="black"/>
<rect x="906" y="30" width="6" height="6" fill="black"/>
<rect x="912" y="30" width="6" height="6" fill="black"/>
<rect x="918" y="30" width="6" height="6" fill="black"/>
<rect x="930" y="30" width="6" height="6" fill="black"/>
<rect x="936" y="30" width="6" height="6" fill="black"/>
<rect x="942" y="30" width="6" height="6" fill="black"/>
<rect x="948" y="30" width="6" height="6" fill="black"/>
<rect x="966" y="30" width="6" height="6" fill="black"/>
<rect x="984" y="30" width="6" height="6" fill="black"/>
<rect x="990" y="30" width="6" height="6" fill="black"/>
<rect x="996" y="30" width="6" height="6" fill="black"/>
<rect x="1014" y="30" width="6" height="6" fill="black"/>
<rect x="1026" y="30" width="6" height="6" fill="black"/>
<rect x="1032" y="30" width="6" height="6" fill="black"/>
<rect x="1044" y="30" width="6" height="6" fill="black"/>
<rect x="1050" y="30" width="6" height="6" fill="black"/>
<rect x="1056" y="30" width="6" height="6" fill="black"/>
<rect x="1062" y="30" width="6" height="6" fill="black"/>
<rect x="1068" y="30" width="6" height="6" fill="black"/>
<rect x="1080" y="30" width="6" height="6" fill="black"/>
<rect x="1086" y="30" width="6" height="6" fill="black"/>
<rect x="1092" y="30" width="6" height="6" fill="black"/>
<rect x="1098" y="30" width="6" height="6" fill="black"/>
<rect x="1122" y="30" width="6" height="6" fill="black"/>
<rect x="1134" y="30" width="6" height="6" fill="black"/>
<rect x="1140" y="30" width="6" height="6" fill="black"/>
<rect x="1146" y="30" width="6" height="6" fill="black"/>
<rect x="1158" y="30" width="6" height="6" fill="black"/>
<rect x="1170" y="30" width="6" height="6" fill="black"/>
<rect x="1182" y="30" width="6" height="6" fill="black"/>
<rect x="1188" y="30" width="6" height="6" fill="black"/>
<rect x="1194" y="30" width="6" height="6" fill="black"/>
<rect x="1200" y="30" width="6" height="6" fill="black"/>
<rect x="1206" y="30" width="6" height="6" fill="black"/>
<rect x="1218" y="30" width="6" height="6" fill="black"/>
<rect x="1224" y="30" width="6" height="6" fill="black"/>
<rect x="1236" y="30" width="6" height="6" fill="black"/>
<rect x="1248" y="30" width="6" height="6" fill="black"/>
<rect x="1254" y="30" width="6" height="6" fill="black"/>
<rect x="1260" y="30" width="6" height="6" fill="black"/>
<rect x="1266" y="30" width="6" height="6" fill="black"/>
<rect x="1272" y="30" width="6" height="6" fill="black"/>
<rect x="1278" y="30" width="6" height="6" fill="black"/>
<rect x="1290" y="30" width="6" height="6" fill="black"/>
<rect x="1296" y="30" width="6" height="6" fill="black"/>
<rect x="1302" y="30" width="6" height="6" fill="black"/>
<rect x="1308" y="30" width="6" height="6" fill="black"/>
<rect x="1320" y="30" width="6" height="6" fill="black"/>
<rect x="1338" y="30" width="6" height="6" fill="black"/>
<rect x="1344" y="30" width="6" height="6" fill="black"/>
<rect x="1350" y="30" width="6" height="6" fill="black"/>
<rect x="1356" y="30" width="6" height="6" fill="black"/>
<rect x="1368" y="30" width="6" height="6" fill="black"/>
<rect x="1374" y="30" width="6" height="6" fill="black"/>
<rect x="1380" y="30" width="6" height="6" fill="black"/>
<rect x="1386" y="30" width="6" height="6" fill="black"/>
<rect x="1722" width="6" height="6" fill="black"/>
<rect x="1332" y="6" width="6" height="6" fill="black"/>
<rect x="1344" y="6" width="6" height="6" fill="black"/>
<rect x="1350" y="6" width="6" height="6" fill="black"/>
<rect x="1368" y="6" width="6" height="6" fill="black"/>
<rect x="1380" y="6" width="6" height="6" fill="black"/>
<rect x="1392" y="6" width="6" height="6" fill="black"/>
<rect x="1398" y="6" width="6" height="6" fill="black"/>
<rect x="1410" y="6" width="6" height="6" fill="black"/>
<rect x="1416" y="6" width="6" height="6" fill="black"/>
<rect x="1422" y="6" width="6" height="6" fill="black"/>
<rect x="1428" y="6" width="6" height="6" fill="black"/>
<rect x="1440" y="6" width="6" height="6" fill="black"/>
<rect x="1446" y="6" width="6" height="6" fill="black"/>
<rect x="1452" y="6" width="6" height="6" fill="black"/>
<rect x="1458" y="6" width="6" height="6" fill="black"/>
<rect x="1464" y="6" width="6" height="6" fill="black"/>
<rect x="1470" y="6" width="6" height="6" fill="black"/>
<rect x="1488" y="6" width="6" height="6" fill="black"/>
<rect x="1494" y="6" width="6" height="6" fill="black"/>
<rect x="1500" y="6" width="6" height="6" fill="black"/>
<rect x="1506" y="6" width="6" height="6" fill="black"/>
<rect x="1512" y="6" width="6" height="6" fill="black"/>
<rect x="1518" y="6" width="6" height="6" fill="black"/>
<rect x="1530" y="6" width="6" height="6" fill="black"/>
<rect x="1536" y="6" width="6" height="6" fill="black"/>
<rect x="1548" y="6" width="6" height="6" fill="black"/>
<rect x="1560" y="6" width="6" height="6" fill="black"/>
<rect x="1572" y="6" width="6" height="6" fill="black"/>
<rect x="1578" y="6" width="6" height="6" fill="black"/>
<rect x="1596" y="6" width="6" height="6" fill="black"/>
<rect x="1602" y="6" width="6" height="6" fill="black"/>
<rect x="1614" y="6" width="6" height="6" fill="black"/>
<rect x="1626" y="6" width="6" height="6" fill="black"/>
<rect x="1632" y="6" width="6" height="6" fill="black"/>
<rect x="1644" y="6" width="6" height="6" fill="black"/>
<rect x="1650" y="6" width="6" height="6" fill="black"/>
<rect x="1662" y="6" width="6" height="6" fill="black"/>
<rect x="1674" y="6" width="6" height="6" fill="black"/>
<rect x="1680" y="6" width="6" height="6" fill="black"/>
<rect x="1692" y="6" width="6" height="6" fill="black"/>
<rect x="1698" y="6" width="6" height="6" fill="black"/>
<rect x="1710" y="6" width="6" height="6" fill="black"/>
<rect x="1716" y="6" width="6" height="6" fill="black"/>
<rect x="1734" y="6" width="6" height="6" fill="black"/>
<rect x="1740" y="6" width="6" height="6" fill="black"/>
<rect x="1758" y="6" width="6" height="6" fill="black"/>
<rect x="1764" y="6" width="6" height="6" fill="black"/>
<rect x="1770" y="6" width="6" height="6" fill="black"/>
<rect x="1776" y="6" width="6" height="6" fill="black"/>
<rect x="1782" y="6" width="6" height="6" fill="black"/>
<rect x="1788" y="6" width="6" height="6" fill="black"/>
<rect x="1800" y="6" width="6" height="6" fill="black"/>
<rect x="1806" y="6" width="6" height="6" fill="black"/>
<rect x="1332" y="12" width="6" height="6" fill="black"/>
<rect x="1344" y="12" width="6" height="6" fill="black"/>
<rect x="1350" y="12" width="6" height="6" fill="black"/>
<rect x="1362" y="12" width="6" height="6" fill="black"/>
<rect x="1368" y="12" width="6" height="6" fill="black"/>
<rect x="1380" y="12" width="6" height="6" fill="black"/>
<rect x="1410" y="12" width="6" height="6" fill="black"/>
<rect x="1416" y="12" width="6" height="6" fill="black"/>
<rect x="1428" y="12" width="6" height="6" fill="black"/>
<rect x="1440" y="12" width="6" height="6" fill="black"/>
<rect x="1446" y="12" width="6" height="6" fill="black"/>
<rect x="1452" y="12" width="6" height="6" fill="black"/>
<rect x="1458" y="12" width="6" height="6" fill="black"/>
<rect x="1464" y="12" width="6" height="6" fill="black"/>
<rect x="1470" y="12" width="6" height="6" fill="black"/>
<rect x="1488" y="12" width="6" height="6" fill="black"/>
<rect x="1494" y="12" width="6" height="6" fill="black"/>
<rect x="1512" y="12" width="6" height="6" fill="black"/>
<rect x="1518" y="12" width="6" height="6" fill="black"/>
<rect x="1530" y="12" width="6" height="6" fill="black"/>
<rect x="1572" y="12" width="6" height="6" fill="black"/>
<rect x="1578" y="12" width="6" height="6" fill="black"/>
<rect x="1596" y="12" width="6" height="6" fill="black"/>
<rect x="1614" y="12" width="6" height="6" fill="black"/>
<rect x="1632" y="12" width="6" height="6" fill="black"/>
<rect x="1644" y="12" width="6" height="6" fill="black"/>
<rect x="1662" y="12" width="6" height="6" fill="black"/>
<rect x="1680" y="12" width="6" height="6" fill="black"/>
<rect x="1686" y="12" width="6" height="6" fill="black"/>
<rect x="1692" y="12" width="6" height="6" fill="black"/>
<rect x="1710" y="12" width="6" height="6" fill="black"/>
<rect x="1734" y="12" width="6" height="6" fill="black"/>
<rect x="1740" y="12" width="6" height="6" fill="black"/>
<rect x="1746" y="12" width="6" height="6" fill="black"/>
<rect x="1764" y="12" width="6" height="6" fill="black"/>
<rect x="1770" y="12" width="6" height="6" fill="black"/>
<rect x="1776" y="12" width="6" height="6" fill="black"/>
<rect x="1782" y="12" width="6" height="6" fill="black"/>
<rect x="1788" y="12" width="6" height="6" fill="black"/>
<rect x="1800" y="12" width="6" height="6" fill="black"/>
<rect x="1806" y="12" width="6" height="6" fill="black"/>
<rect x="1326" y="24" width="6" height="6" fill="black"/>
<rect x="1332" y="24" width="6" height="6" fill="black"/>
<rect x="1338" y="24" width="6" height="6" fill="black"/>
<rect x="1350" y="24" width="6" height="6" fill="black"/>
<rect x="1356" y="24" width="6" height="6" fill="black"/>
<rect x="1362" y="24" width="6" height="6" fill="black"/>
<rect x="1368" y="24" width="6" height="6" fill="black"/>
<rect x="1374" y="24" width="6" height="6" fill="black"/>
<rect x="1386" y="24" width="6" height="6" fill="black"/>
<rect x="1392" y="24" width="6" height="6" fill="black"/>
<rect x="1404" y="24" width="6" height="6" fill="black"/>
<rect x="1410" y="24" width="6" height="6" fill="black"/>
<rect x="1416" y="24" width="6" height="6" fill="black"/>
<rect x="1422" y="24" width="6" height="6" fill="black"/>
<rect x="1434" y="24" width="6" height="6" fill="black"/>
<rect x="1446" y="24" width="6" height="6" fill="black"/>
<rect x="1452" y="24" width="6" height="6" fill="black"/>
<rect x="1464" y="24" width="6" height="6" fill="black"/>
<rect x="1470" y="24" width="6" height="6" fill="black"/>
<rect x="1476" y="24" width="6" height="6" fill="black"/>
<rect x="1482" y="24" width="6" height="6" fill="black"/>
<rect x="1488" y="24" width="6" height="6" fill="black"/>
<rect x="1500" y="24" width="6" height="6" fill="black"/>
<rect x="1506" y="24" width="6" height="6" fill="black"/>
<rect x="1512" y="24" width="6" height="6" fill="black"/>
<rect x="1518" y="24" width="6" height="6" fill="black"/>
<rect x="1530" y="24" width="6" height="6" fill="black"/>
<rect x="1536" y="24" width="6" height="6" fill="black"/>
<rect x="1542" y="24" width="6" height="6" fill="black"/>
<rect x="1554" y="24" width="6" height="6" fill="black"/>
<rect x="1560" y="24" width="6" height="6" fill="black"/>
<rect x="1566" y="24" width="6" height="6" fill="black"/>
<rect x="1578" y="24" width="6" height="6" fill="black"/>
<rect x="1590" y="24" width="6" height="6" fill="black"/>
<rect x="1602" y="24" width="6" height="6" fill="black"/>
<rect x="1608" y="24" width="6" height="6" fill="black"/>
<rect x="1620" y="24" width="6" height="6" fill="black"/>
<rect x="1626" y="24" width="6" height="6" fill="black"/>
<rect x="1632" y="24" width="6" height="6" fill="black"/>
<rect x="1638" y="24" width="6" height="6" fill="black"/>
<rect x="1644" y="24" width="6" height="6" fill="black"/>
<rect x="1650" y="24" width="6" height="6" fill="black"/>
<rect x="1656" y="24" width="6" height="6" fill="black"/>
<rect x="1668" y="24" width="6" height="6" fill="black"/>
<rect x="1674" y="24" width="6" height="6" fill="black"/>
<rect x="1680" y="24" width="6" height="6" fill="black"/>
<rect x="1686" y="24" width="6" height="6" fill="black"/>
<rect x="1692" y="24" width="6" height="6" fill="black"/>
<rect x="1698" y="24" width="6" height="6" fill="black"/>
<rect x="1710" y="24" width="6" height="6" fill="black"/>
<rect x="1716" y="24" width="6" height="6" fill="black"/>
<rect x="1722" y="24" width="6" height="6" fill="black"/>
<rect x="1728" y="24" width="6" height="6" fill="black"/>
<rect x="1740" y="24" width="6" height="6" fill="black"/>
<rect x="1752" y="24" width="6" height="6" fill="black"/>
<rect x="1758" y="24" width="6" height="6" fill="black"/>
<rect x="1764" y="24" width="6" height="6" fill="black"/>
<rect x="1776" y="24" width="6" height="6" fill="black"/>
<rect x="1794" y="24" width="6" height="6" fill="black"/>
<rect x="1800" y="24" width="6" height="6" fill="black"/>
<rect x="1806" y="24" width="6" height="6" fill="black"/>
<rect x="1326" y="30" width="6" height="6" fill="black"/>
<rect x="1332" y="30" width="6" height="6" fill="black"/>
<rect x="1338" y="30" width="6" height="6" fill="black"/>
<rect x="1350" y="30" width="6" height="6" fill="black"/>
<rect x="1356" y="30" width="6" height="6" fill="black"/>
<rect x="1362" y="30" width="6" height="6" fill="black"/>
<rect x="1368" y="30" width="6" height="6" fill="black"/>
<rect x="1386" y="30" width="6" height="6" fill="black"/>
<rect x="1404" y="30" width="6" height="6" fill="black"/>
<rect x="1410" y="30" width="6" height="6" fill="black"/>
<rect x="1416" y="30" width="6" height="6" fill="black"/>
<rect x="1434" y="30" width="6" height="6" fill="black"/>
<rect x="1446" y="30" width="6" height="6" fill="black"/>
<rect x="1452" y="30" width="6" height="6" fill="black"/>
<rect x="1464" y="30" width="6" height="6" fill="black"/>
<rect x="1470" y="30" width="6" height="6" fill="black"/>
<rect x="1476" y="30" width="6" height="6" fill="black"/>
<rect x="1482" y="30" width="6" height="6" fill="black"/>
<rect x="1488" y="30" width="6" height="6" fill="black"/>
<rect x="1500" y="30" width="6" height="6" fill="black"/>
<rect x="1506" y="30" width="6" height="6" fill="black"/>
<rect x="1512" y="30" width="6" height="6" fill="black"/>
<rect x="1518" y="30" width="6" height="6" fill="black"/>
<rect x="1542" y="30" width="6" height="6" fill="black"/>
<rect x="1554" y="30" width="6" height="6" fill="black"/>
<rect x="1560" y="30" width="6" height="6" fill="black"/>
<rect x="1566" y="30" width="6" height="6" fill="black"/>
<rect x="1578" y="30" width="6" height="6" fill="black"/>
<rect x="1590" y="30" width="6" height="6" fill="black"/>
<rect x="1602" y="30" width="6" height="6" fill="black"/>
<rect x="1608" y="30" width="6" height="6" fill="black"/>
<rect x="1614" y="30" width="6" height="6" fill="black"/>
<rect x="1620" y="30" width="6" height="6" fill="black"/>
<rect x="1626" y="30" width="6" height="6" fill="black"/>
<rect x="1638" y="30" width="6" height="6" fill="black"/>
<rect x="1644" y="30" width="6" height="6" fill="black"/>
<rect x="1656" y="30" width="6" height="6" fill="black"/>
<rect x="1668" y="30" width="6" height="6" fill="black"/>
<rect x="1674" y="30" width="6" height="6" fill="black"/>
<rect x="1680" y="30" width="6" height="6" fill="black"/>
<rect x="1686" y="30" width="6" height="6" fill="black"/>
<rect x="1692" y="30" width="6" height="6" fill="black"/>
<rect x="1698" y="30" width="6" height="6" fill="black"/>
<rect x="1710" y="30" width="6" height="6" fill="black"/>
<rect x="1716" y="30" width="6" height="6" fill="black"/>
<rect x="1722" y="30" width="6" height="6" fill="black"/>
<rect x="1728" y="30" width="6" height="6" fill="black"/>
<rect x="1740" y="30" width="6" height="6" fill="black"/>
<rect x="1758" y="30" width="6" height="6" fill="black"/>
<rect x="1764" y="30" width="6" height="6" fill="black"/>
<rect x="1770" y="30" width="6" height="6" fill="black"/>
<rect x="1776" y="30" width="6" height="6" fill="black"/>
<rect x="1788" y="30" width="6" height="6" fill="black"/>
<rect x="1794" y="30" width="6" height="6" fill="black"/>
<rect x="1800" y="30" width="6" height="6" fill="black"/>
<rect x="1806" y="30" width="6" height="6" fill="black"/>
</svg>
