<svg width="195" height="195" viewBox="0 0 195 195" fill="none" xmlns="http://www.w3.org/2000/svg">
<path d="M159.348 145.126C156.27 153.383 151.822 160.399 146.124 165.979C140.648 171.337 133.899 175.481 126.064 178.296C117.716 181.289 108.107 182.812 97.5 182.812C86.8931 182.812 77.284 181.289 68.9355 178.296C61.1013 175.481 54.3524 171.337 48.8757 165.979C43.1628 160.399 38.7296 153.383 35.6522 145.126C32.2131 135.898 30.4688 125.124 30.4688 113.092C30.4688 101.56 33.0129 89.262 38.0326 76.5299C42.9066 64.3139 49.4622 52.8383 57.5098 42.4354C74.5646 20.3988 91.7871 12.1875 97.5 12.1875C103.213 12.1875 121.368 20.7187 137.49 42.4354C144.471 51.8464 152.294 64.6547 156.979 76.5375C161.999 89.262 164.543 101.56 164.543 113.1C164.531 125.124 162.787 135.898 159.348 145.126V145.126Z" fill="black"/>
<path d="M74 62V127.5H98.5V108.5M98.5 87V68.5H122.5V134" stroke="white" stroke-width="13"/>
</svg>
