<svg width="387" height="76" viewBox="0 0 387 76" fill="none" xmlns="http://www.w3.org/2000/svg">
<rect width="76" height="76" fill="#162328"/>
<path fill-rule="evenodd" clip-rule="evenodd" d="M18 14H26V53H34L34 44H42L42 53V61H34H26H18V53V14Z" fill="#FBFBFB"/>
<path fill-rule="evenodd" clip-rule="evenodd" d="M58 61L50 61L50 22L42 22L42 31L34 31L34 22L34 14L42 14L50 14L58 14L58 61Z" fill="#FBFBFB"/>
<path d="M117.141 24.8154V27.4985H103.674V24.8154H117.141ZM104.187 14.1172V39H100.888V14.1172H104.187ZM120.012 14.1172V39H116.73V14.1172H120.012ZM133.068 39.3418C131.781 39.3418 130.613 39.1253 129.565 38.6924C128.528 38.248 127.634 37.6271 126.882 36.8296C126.141 36.0321 125.572 35.0864 125.173 33.9927C124.774 32.8989 124.575 31.7026 124.575 30.4038V29.686C124.575 28.1821 124.797 26.8434 125.241 25.6699C125.686 24.485 126.289 23.4824 127.053 22.6621C127.816 21.8418 128.682 21.2209 129.65 20.7993C130.619 20.3778 131.621 20.167 132.658 20.167C133.98 20.167 135.119 20.3949 136.076 20.8506C137.045 21.3063 137.836 21.9443 138.452 22.7646C139.067 23.5736 139.523 24.5306 139.819 25.6357C140.115 26.7295 140.263 27.9258 140.263 29.2246V30.6431H126.455V28.0625H137.102V27.8232C137.056 27.0029 136.885 26.2054 136.589 25.4307C136.304 24.6559 135.848 24.0179 135.222 23.5166C134.595 23.0153 133.741 22.7646 132.658 22.7646C131.94 22.7646 131.28 22.9185 130.676 23.2261C130.072 23.5223 129.554 23.9666 129.121 24.5591C128.688 25.1515 128.352 25.875 128.112 26.7295C127.873 27.584 127.753 28.5695 127.753 29.686V30.4038C127.753 31.2811 127.873 32.1071 128.112 32.8818C128.363 33.6452 128.722 34.3174 129.189 34.8984C129.667 35.4795 130.243 35.9352 130.915 36.2656C131.599 36.596 132.373 36.7612 133.239 36.7612C134.356 36.7612 135.301 36.5334 136.076 36.0776C136.851 35.6219 137.529 35.0124 138.11 34.249L140.024 35.77C139.625 36.3739 139.118 36.9492 138.503 37.4961C137.888 38.043 137.13 38.4873 136.23 38.8291C135.341 39.1709 134.287 39.3418 133.068 39.3418ZM151.696 20.5088V22.9355H141.699V20.5088H151.696ZM145.083 16.0142H148.244V34.4199C148.244 35.0465 148.341 35.5194 148.535 35.8384C148.728 36.1574 148.979 36.3682 149.287 36.4707C149.594 36.5732 149.925 36.6245 150.278 36.6245C150.54 36.6245 150.813 36.6017 151.098 36.5562C151.394 36.4992 151.617 36.4536 151.765 36.4194L151.782 39C151.531 39.0798 151.201 39.1538 150.791 39.2222C150.392 39.3019 149.908 39.3418 149.338 39.3418C148.563 39.3418 147.851 39.188 147.202 38.8804C146.552 38.5728 146.034 38.0601 145.646 37.3423C145.271 36.6131 145.083 35.6333 145.083 34.4028V16.0142ZM162.805 36.7441C163.557 36.7441 164.252 36.5903 164.89 36.2827C165.528 35.9751 166.052 35.5535 166.462 35.0181C166.872 34.4712 167.106 33.8503 167.163 33.1553H170.17C170.113 34.249 169.743 35.2687 169.06 36.2144C168.387 37.1486 167.504 37.9062 166.411 38.4873C165.317 39.057 164.115 39.3418 162.805 39.3418C161.415 39.3418 160.201 39.0968 159.165 38.6069C158.139 38.117 157.285 37.4448 156.601 36.5903C155.929 35.7358 155.422 34.756 155.08 33.6509C154.75 32.5343 154.584 31.3551 154.584 30.1133V29.3955C154.584 28.1536 154.75 26.9801 155.08 25.875C155.422 24.7585 155.929 23.7729 156.601 22.9185C157.285 22.064 158.139 21.3918 159.165 20.9019C160.201 20.4119 161.415 20.167 162.805 20.167C164.252 20.167 165.516 20.4632 166.599 21.0557C167.681 21.6367 168.53 22.4342 169.145 23.4482C169.772 24.4508 170.113 25.5902 170.17 26.8662H167.163C167.106 26.1029 166.889 25.4136 166.513 24.7983C166.149 24.1831 165.647 23.6932 165.009 23.3286C164.383 22.9526 163.648 22.7646 162.805 22.7646C161.836 22.7646 161.022 22.9583 160.361 23.3457C159.711 23.7217 159.193 24.2344 158.806 24.8838C158.43 25.5218 158.156 26.2339 157.985 27.02C157.826 27.7948 157.746 28.5866 157.746 29.3955V30.1133C157.746 30.9222 157.826 31.7197 157.985 32.5059C158.145 33.292 158.413 34.0041 158.789 34.6421C159.176 35.2801 159.694 35.7928 160.344 36.1802C161.005 36.5562 161.825 36.7441 162.805 36.7441ZM176.887 12.75V39H173.725V12.75H176.887ZM176.135 29.0537L174.819 29.0024C174.83 27.7378 175.018 26.57 175.383 25.499C175.747 24.4167 176.26 23.4767 176.921 22.6792C177.582 21.8817 178.368 21.2664 179.279 20.8335C180.202 20.3892 181.222 20.167 182.338 20.167C183.25 20.167 184.07 20.2923 184.799 20.543C185.528 20.7822 186.149 21.1696 186.662 21.7051C187.186 22.2406 187.585 22.9355 187.858 23.79C188.132 24.6331 188.269 25.6642 188.269 26.8833V39H185.09V26.8491C185.09 25.8807 184.947 25.106 184.663 24.5249C184.378 23.9325 183.962 23.5052 183.415 23.2432C182.868 22.9697 182.196 22.833 181.398 22.833C180.612 22.833 179.895 22.9982 179.245 23.3286C178.607 23.659 178.055 24.1147 177.587 24.6958C177.132 25.2769 176.773 25.9434 176.511 26.6953C176.26 27.4359 176.135 28.222 176.135 29.0537ZM197.719 39H194.558V18.5605C194.558 17.2275 194.797 16.1053 195.275 15.1938C195.765 14.271 196.466 13.576 197.377 13.1089C198.289 12.6304 199.371 12.3911 200.625 12.3911C200.989 12.3911 201.354 12.4139 201.718 12.4595C202.094 12.505 202.459 12.5734 202.812 12.6646L202.641 15.2451C202.402 15.1882 202.128 15.1483 201.821 15.1255C201.525 15.1027 201.228 15.0913 200.932 15.0913C200.26 15.0913 199.679 15.228 199.189 15.5015C198.71 15.7635 198.346 16.1509 198.095 16.6636C197.845 17.1763 197.719 17.8086 197.719 18.5605V39ZM201.65 20.5088V22.9355H191.635V20.5088H201.65ZM216.484 34.7275V20.5088H219.663V39H216.638L216.484 34.7275ZM217.082 30.8311L218.398 30.7969C218.398 32.0273 218.267 33.1667 218.005 34.2148C217.754 35.2516 217.344 36.1517 216.774 36.915C216.205 37.6784 215.458 38.2765 214.536 38.7095C213.613 39.131 212.491 39.3418 211.169 39.3418C210.269 39.3418 209.443 39.2108 208.691 38.9487C207.95 38.6867 207.312 38.2822 206.777 37.7354C206.241 37.1885 205.826 36.4764 205.529 35.5991C205.244 34.7218 205.102 33.668 205.102 32.4375V20.5088H208.264V32.4717C208.264 33.3034 208.355 33.9927 208.537 34.5396C208.731 35.075 208.987 35.5023 209.306 35.8213C209.637 36.1289 210.001 36.3454 210.4 36.4707C210.81 36.596 211.232 36.6587 211.665 36.6587C213.009 36.6587 214.074 36.4023 214.86 35.8896C215.646 35.3656 216.21 34.6649 216.552 33.7876C216.905 32.8989 217.082 31.9134 217.082 30.8311ZM227.644 24.4565V39H224.482V20.5088H227.473L227.644 24.4565ZM226.892 29.0537L225.576 29.0024C225.587 27.7378 225.775 26.57 226.14 25.499C226.504 24.4167 227.017 23.4767 227.678 22.6792C228.339 21.8817 229.125 21.2664 230.036 20.8335C230.959 20.3892 231.979 20.167 233.095 20.167C234.007 20.167 234.827 20.2923 235.556 20.543C236.285 20.7822 236.906 21.1696 237.419 21.7051C237.943 22.2406 238.342 22.9355 238.615 23.79C238.889 24.6331 239.025 25.6642 239.025 26.8833V39H235.847V26.8491C235.847 25.8807 235.704 25.106 235.419 24.5249C235.135 23.9325 234.719 23.5052 234.172 23.2432C233.625 22.9697 232.953 22.833 232.155 22.833C231.369 22.833 230.651 22.9982 230.002 23.3286C229.364 23.659 228.811 24.1147 228.344 24.6958C227.889 25.2769 227.53 25.9434 227.268 26.6953C227.017 27.4359 226.892 28.222 226.892 29.0537ZM255.483 35.4111V12.75H258.662V39H255.756L255.483 35.4111ZM243.042 29.9595V29.6006C243.042 28.1878 243.212 26.9061 243.554 25.7554C243.907 24.5933 244.403 23.5964 245.041 22.7646C245.69 21.9329 246.459 21.2949 247.348 20.8506C248.248 20.3949 249.251 20.167 250.356 20.167C251.518 20.167 252.532 20.3721 253.398 20.7822C254.275 21.181 255.016 21.7677 255.62 22.5425C256.235 23.3058 256.719 24.2287 257.072 25.311C257.425 26.3934 257.67 27.6182 257.807 28.9854V30.5576C257.682 31.9134 257.437 33.1325 257.072 34.2148C256.719 35.2972 256.235 36.2201 255.62 36.9834C255.016 37.7467 254.275 38.3335 253.398 38.7437C252.521 39.1424 251.495 39.3418 250.322 39.3418C249.239 39.3418 248.248 39.1082 247.348 38.6411C246.459 38.174 245.69 37.5189 245.041 36.6758C244.403 35.8327 243.907 34.8415 243.554 33.7021C243.212 32.5514 243.042 31.3039 243.042 29.9595ZM246.22 29.6006V29.9595C246.22 30.8823 246.311 31.7482 246.494 32.5571C246.687 33.366 246.984 34.0781 247.382 34.6934C247.781 35.3086 248.288 35.7928 248.903 36.146C249.519 36.4878 250.253 36.6587 251.108 36.6587C252.156 36.6587 253.016 36.4365 253.688 35.9922C254.372 35.5479 254.919 34.9611 255.329 34.2319C255.739 33.5028 256.058 32.7109 256.286 31.8564V27.7378C256.149 27.1112 255.95 26.5073 255.688 25.9263C255.437 25.3338 255.107 24.8097 254.697 24.354C254.298 23.8869 253.802 23.5166 253.21 23.2432C252.629 22.9697 251.94 22.833 251.142 22.833C250.276 22.833 249.53 23.0153 248.903 23.3799C248.288 23.7331 247.781 24.223 247.382 24.8496C246.984 25.4648 246.687 26.1826 246.494 27.0029C246.311 27.8118 246.22 28.6777 246.22 29.6006Z" fill="#2D8B45"/>
<path d="M263.173 36.2998C263.173 35.4795 263.47 34.7959 264.062 34.249C264.654 33.6908 265.418 33.4116 266.352 33.4116C267.298 33.4116 268.061 33.6908 268.642 34.249C269.235 34.7959 269.531 35.4795 269.531 36.2998C269.531 37.1201 269.235 37.8094 268.642 38.3677C268.061 38.9146 267.298 39.188 266.352 39.188C265.418 39.188 264.654 38.9146 264.062 38.3677C263.47 37.8094 263.173 37.1201 263.173 36.2998ZM287.817 30.5747H293.798C293.719 32.3065 293.251 33.8332 292.397 35.1548C291.542 36.4764 290.358 37.5075 288.842 38.248C287.338 38.9772 285.561 39.3418 283.51 39.3418C281.847 39.3418 280.36 39.0627 279.05 38.5044C277.751 37.9461 276.646 37.1429 275.734 36.0947C274.834 35.0465 274.145 33.7762 273.667 32.2837C273.199 30.7912 272.966 29.1107 272.966 27.2422V25.8921C272.966 24.0236 273.211 22.3431 273.701 20.8506C274.202 19.3467 274.908 18.0706 275.82 17.0225C276.743 15.9629 277.848 15.154 279.135 14.5957C280.423 14.0374 281.853 13.7583 283.425 13.7583C285.59 13.7583 287.418 14.1457 288.911 14.9204C290.403 15.6951 291.56 16.7604 292.38 18.1162C293.2 19.4606 293.684 20.993 293.833 22.7134H287.851C287.828 21.7791 287.669 20.9987 287.373 20.3721C287.076 19.734 286.609 19.2555 285.971 18.9365C285.333 18.6175 284.484 18.458 283.425 18.458C282.684 18.458 282.041 18.5947 281.494 18.8682C280.947 19.1416 280.491 19.5745 280.126 20.167C279.762 20.7594 279.488 21.5285 279.306 22.4741C279.135 23.4084 279.05 24.5363 279.05 25.8579V27.2422C279.05 28.5638 279.13 29.6917 279.289 30.626C279.449 31.5602 279.705 32.3236 280.058 32.916C280.411 33.5085 280.867 33.9471 281.425 34.2319C281.995 34.5054 282.69 34.6421 283.51 34.6421C284.422 34.6421 285.191 34.4997 285.817 34.2148C286.444 33.9186 286.928 33.4743 287.27 32.8818C287.612 32.278 287.794 31.509 287.817 30.5747ZM305.966 34.3516V26.7295C305.966 26.2054 305.892 25.7554 305.744 25.3794C305.596 25.0034 305.362 24.7129 305.043 24.5078C304.724 24.2913 304.297 24.1831 303.762 24.1831C303.329 24.1831 302.958 24.2572 302.651 24.4053C302.343 24.5534 302.11 24.7756 301.95 25.0718C301.791 25.368 301.711 25.744 301.711 26.1997H295.952C295.952 25.3452 296.14 24.5534 296.516 23.8242C296.903 23.0837 297.45 22.4399 298.156 21.8931C298.874 21.3462 299.729 20.9246 300.72 20.6284C301.722 20.3208 302.839 20.167 304.069 20.167C305.539 20.167 306.849 20.4119 308 20.9019C309.162 21.3918 310.079 22.1266 310.751 23.1064C311.424 24.0749 311.76 25.2939 311.76 26.7637V34.3345C311.76 35.5422 311.828 36.4593 311.965 37.0859C312.102 37.7012 312.295 38.2424 312.546 38.7095V39H306.77C306.496 38.4303 306.291 37.7354 306.154 36.915C306.029 36.0833 305.966 35.2288 305.966 34.3516ZM306.667 27.7036L306.701 30.7798H304.155C303.619 30.7798 303.164 30.8538 302.788 31.002C302.423 31.1501 302.127 31.3551 301.899 31.6172C301.682 31.8678 301.523 32.1527 301.42 32.4717C301.329 32.7907 301.284 33.1268 301.284 33.48C301.284 33.8218 301.363 34.1294 301.523 34.4028C301.694 34.6649 301.922 34.87 302.207 35.0181C302.491 35.1662 302.81 35.2402 303.164 35.2402C303.802 35.2402 304.343 35.1206 304.787 34.8813C305.243 34.6307 305.59 34.3288 305.83 33.9756C306.069 33.6224 306.188 33.292 306.188 32.9844L307.453 35.3428C307.225 35.7985 306.963 36.2599 306.667 36.7271C306.382 37.1942 306.023 37.6271 305.59 38.0259C305.169 38.4132 304.65 38.7323 304.035 38.9829C303.42 39.2222 302.674 39.3418 301.796 39.3418C300.657 39.3418 299.609 39.1082 298.652 38.6411C297.706 38.174 296.949 37.5246 296.379 36.6929C295.809 35.8498 295.524 34.8813 295.524 33.7876C295.524 32.8306 295.695 31.9761 296.037 31.2241C296.39 30.4722 296.92 29.8341 297.626 29.3101C298.333 28.786 299.233 28.3872 300.327 28.1138C301.42 27.8403 302.708 27.7036 304.189 27.7036H306.667ZM320.766 24.0635V46.1094H315.007V20.5088H320.373L320.766 24.0635ZM332.114 29.5322V29.8911C332.114 31.2355 331.96 32.4831 331.652 33.6338C331.345 34.7845 330.889 35.7871 330.285 36.6416C329.681 37.4961 328.929 38.1626 328.029 38.6411C327.141 39.1082 326.11 39.3418 324.936 39.3418C323.831 39.3418 322.88 39.0968 322.082 38.6069C321.285 38.117 320.618 37.4391 320.083 36.5732C319.547 35.7074 319.114 34.7161 318.784 33.5996C318.453 32.4831 318.191 31.3039 317.998 30.062V29.6006C318.191 28.2676 318.453 27.0314 318.784 25.8921C319.114 24.7414 319.547 23.7388 320.083 22.8843C320.618 22.0298 321.279 21.3633 322.065 20.8848C322.862 20.4062 323.814 20.167 324.919 20.167C326.092 20.167 327.124 20.3892 328.012 20.8335C328.912 21.2778 329.664 21.9159 330.268 22.7476C330.883 23.5679 331.345 24.5534 331.652 25.7041C331.96 26.8548 332.114 28.1309 332.114 29.5322ZM326.354 29.8911V29.5322C326.354 28.8145 326.303 28.1593 326.201 27.5669C326.098 26.9631 325.933 26.439 325.705 25.9946C325.489 25.5503 325.198 25.2085 324.833 24.9692C324.469 24.73 324.019 24.6104 323.483 24.6104C322.868 24.6104 322.35 24.7072 321.928 24.9009C321.518 25.0832 321.188 25.368 320.937 25.7554C320.698 26.1313 320.527 26.6042 320.424 27.1738C320.333 27.7321 320.293 28.3872 320.305 29.1392V30.5405C320.282 31.4064 320.367 32.1698 320.561 32.8306C320.755 33.48 321.091 33.987 321.569 34.3516C322.048 34.7161 322.697 34.8984 323.518 34.8984C324.064 34.8984 324.52 34.7731 324.885 34.5225C325.249 34.2604 325.54 33.9015 325.756 33.4458C325.973 32.9787 326.127 32.4432 326.218 31.8394C326.309 31.2355 326.354 30.5861 326.354 29.8911ZM340.761 20.5088V39H334.985V20.5088H340.761ZM334.643 15.7407C334.643 14.9204 334.939 14.2482 335.532 13.7241C336.124 13.2 336.893 12.938 337.839 12.938C338.785 12.938 339.554 13.2 340.146 13.7241C340.738 14.2482 341.035 14.9204 341.035 15.7407C341.035 16.561 340.738 17.2332 340.146 17.7573C339.554 18.2814 338.785 18.5435 337.839 18.5435C336.893 18.5435 336.124 18.2814 335.532 17.7573C334.939 17.2332 334.643 16.561 334.643 15.7407ZM354.057 20.5088V24.5078H342.915V20.5088H354.057ZM345.256 15.9116H351.015V32.9673C351.015 33.4572 351.072 33.8389 351.186 34.1123C351.3 34.3743 351.494 34.5623 351.767 34.6763C352.052 34.7788 352.428 34.8301 352.895 34.8301C353.225 34.8301 353.499 34.8244 353.715 34.813C353.932 34.7902 354.137 34.7617 354.331 34.7275V38.8462C353.841 39.0057 353.328 39.1253 352.792 39.2051C352.257 39.2962 351.687 39.3418 351.083 39.3418C349.853 39.3418 348.799 39.1481 347.922 38.7607C347.056 38.3734 346.395 37.7638 345.939 36.9321C345.484 36.1004 345.256 35.0181 345.256 33.6851V15.9116ZM365.952 34.3516V26.7295C365.952 26.2054 365.878 25.7554 365.729 25.3794C365.581 25.0034 365.348 24.7129 365.029 24.5078C364.71 24.2913 364.283 24.1831 363.747 24.1831C363.314 24.1831 362.944 24.2572 362.636 24.4053C362.329 24.5534 362.095 24.7756 361.936 25.0718C361.776 25.368 361.696 25.744 361.696 26.1997H355.937C355.937 25.3452 356.125 24.5534 356.501 23.8242C356.888 23.0837 357.435 22.4399 358.142 21.8931C358.859 21.3462 359.714 20.9246 360.705 20.6284C361.708 20.3208 362.824 20.167 364.055 20.167C365.524 20.167 366.835 20.4119 367.985 20.9019C369.147 21.3918 370.065 22.1266 370.737 23.1064C371.409 24.0749 371.745 25.2939 371.745 26.7637V34.3345C371.745 35.5422 371.813 36.4593 371.95 37.0859C372.087 37.7012 372.281 38.2424 372.531 38.7095V39H366.755C366.481 38.4303 366.276 37.7354 366.14 36.915C366.014 36.0833 365.952 35.2288 365.952 34.3516ZM366.652 27.7036L366.687 30.7798H364.14C363.605 30.7798 363.149 30.8538 362.773 31.002C362.408 31.1501 362.112 31.3551 361.884 31.6172C361.668 31.8678 361.508 32.1527 361.406 32.4717C361.315 32.7907 361.269 33.1268 361.269 33.48C361.269 33.8218 361.349 34.1294 361.508 34.4028C361.679 34.6649 361.907 34.87 362.192 35.0181C362.477 35.1662 362.796 35.2402 363.149 35.2402C363.787 35.2402 364.328 35.1206 364.772 34.8813C365.228 34.6307 365.576 34.3288 365.815 33.9756C366.054 33.6224 366.174 33.292 366.174 32.9844L367.438 35.3428C367.211 35.7985 366.949 36.2599 366.652 36.7271C366.368 37.1942 366.009 37.6271 365.576 38.0259C365.154 38.4132 364.636 38.7323 364.021 38.9829C363.405 39.2222 362.659 39.3418 361.782 39.3418C360.642 39.3418 359.594 39.1082 358.637 38.6411C357.692 38.174 356.934 37.5246 356.364 36.6929C355.795 35.8498 355.51 34.8813 355.51 33.7876C355.51 32.8306 355.681 31.9761 356.022 31.2241C356.376 30.4722 356.905 29.8341 357.612 29.3101C358.318 28.786 359.218 28.3872 360.312 28.1138C361.406 27.8403 362.693 27.7036 364.174 27.7036H366.652ZM381.025 12.75V39H375.249V12.75H381.025Z" fill="#162328"/>
<path opacity="0.65" d="M103.233 63.453V59.7745C103.233 59.4989 103.183 59.2612 103.083 59.0616C102.983 58.862 102.831 58.7076 102.627 58.5982C102.427 58.4889 102.175 58.4343 101.871 58.4343C101.591 58.4343 101.348 58.4818 101.144 58.5769C100.939 58.6719 100.78 58.8002 100.666 58.9618C100.552 59.1234 100.495 59.3064 100.495 59.5107H98.7842C98.7842 59.2066 98.8578 58.9119 99.0052 58.6268C99.1525 58.3416 99.3664 58.0873 99.6468 57.864C99.9272 57.6406 100.262 57.4647 100.652 57.3364C101.042 57.2081 101.479 57.1439 101.964 57.1439C102.543 57.1439 103.057 57.2414 103.504 57.4362C103.955 57.6311 104.309 57.9257 104.566 58.3202C104.827 58.7099 104.958 59.1994 104.958 59.7888V63.2178C104.958 63.5695 104.982 63.8855 105.029 64.1659C105.081 64.4416 105.155 64.6816 105.25 64.8859V65H103.489C103.408 64.8146 103.344 64.5794 103.297 64.2942C103.254 64.0043 103.233 63.7239 103.233 63.453ZM103.482 60.3092L103.496 61.3714H102.263C101.945 61.3714 101.664 61.4023 101.422 61.4641C101.179 61.5211 100.978 61.6066 100.816 61.7207C100.654 61.8348 100.533 61.9726 100.452 62.1342C100.372 62.2958 100.331 62.4787 100.331 62.6831C100.331 62.8875 100.379 63.0752 100.474 63.2463C100.569 63.4126 100.707 63.5433 100.887 63.6384C101.073 63.7334 101.296 63.781 101.557 63.781C101.909 63.781 102.216 63.7097 102.477 63.5671C102.743 63.4198 102.952 63.2415 103.104 63.0324C103.256 62.8186 103.337 62.6166 103.347 62.4265L103.903 63.1893C103.846 63.3841 103.748 63.5932 103.61 63.8166C103.473 64.04 103.292 64.2538 103.069 64.4582C102.85 64.6578 102.586 64.8218 102.277 64.9501C101.973 65.0784 101.621 65.1426 101.222 65.1426C100.718 65.1426 100.269 65.0428 99.8749 64.8432C99.4804 64.6388 99.1715 64.3655 98.9481 64.0233C98.7248 63.6764 98.6131 63.2843 98.6131 62.8471C98.6131 62.4383 98.6891 62.0771 98.8412 61.7635C98.998 61.4451 99.2262 61.1789 99.5256 60.965C99.8298 60.7512 100.2 60.5896 100.638 60.4803C101.075 60.3662 101.574 60.3092 102.135 60.3092H103.482ZM116.474 58.9333V65H114.756V57.2865H116.374L116.474 58.9333ZM116.167 60.8581L115.611 60.851C115.616 60.3044 115.692 59.803 115.839 59.3468C115.991 58.8905 116.201 58.4984 116.467 58.1705C116.738 57.8426 117.061 57.5907 117.436 57.4148C117.812 57.2342 118.23 57.1439 118.691 57.1439C119.062 57.1439 119.397 57.1962 119.696 57.3008C120 57.4006 120.259 57.5646 120.473 57.7927C120.692 58.0208 120.858 58.3178 120.972 58.6838C121.086 59.045 121.143 59.4894 121.143 60.0169V65H119.418V60.0098C119.418 59.6391 119.363 59.3468 119.254 59.1329C119.15 58.9143 118.995 58.7598 118.791 58.6695C118.591 58.5745 118.342 58.527 118.042 58.527C117.748 58.527 117.484 58.5887 117.251 58.7123C117.018 58.8359 116.821 59.0046 116.659 59.2185C116.502 59.4323 116.381 59.6795 116.296 59.9599C116.21 60.2403 116.167 60.5397 116.167 60.8581ZM128.487 65.1426C127.917 65.1426 127.402 65.0499 126.941 64.8646C126.484 64.6744 126.095 64.4107 125.771 64.0732C125.453 63.7358 125.208 63.339 125.037 62.8827C124.866 62.4265 124.78 61.9346 124.78 61.407V61.1219C124.78 60.5183 124.868 59.9717 125.044 59.4822C125.22 58.9927 125.465 58.5745 125.778 58.2275C126.092 57.8758 126.463 57.6073 126.891 57.422C127.318 57.2366 127.782 57.1439 128.281 57.1439C128.832 57.1439 129.314 57.2366 129.728 57.422C130.141 57.6073 130.484 57.8687 130.754 58.2062C131.03 58.5388 131.234 58.9357 131.368 59.3967C131.505 59.8577 131.574 60.3662 131.574 60.9223V61.6565H125.615V60.4232H129.878V60.2878C129.868 59.9789 129.806 59.689 129.692 59.4181C129.583 59.1472 129.414 58.9285 129.186 58.7622C128.958 58.5959 128.654 58.5127 128.274 58.5127C127.988 58.5127 127.734 58.5745 127.511 58.698C127.292 58.8169 127.109 58.9903 126.962 59.2185C126.815 59.4466 126.701 59.7222 126.62 60.0454C126.544 60.3638 126.506 60.7227 126.506 61.1219V61.407C126.506 61.7445 126.551 62.0581 126.641 62.348C126.736 62.6332 126.874 62.8827 127.055 63.0966C127.235 63.3104 127.454 63.4792 127.71 63.6027C127.967 63.7215 128.259 63.781 128.587 63.781C129.001 63.781 129.369 63.6978 129.692 63.5314C130.015 63.3651 130.296 63.1299 130.533 62.8257L131.439 63.7025C131.273 63.9449 131.056 64.1778 130.79 64.4012C130.524 64.6198 130.198 64.798 129.813 64.9358C129.433 65.0737 128.991 65.1426 128.487 65.1426ZM136.416 57.2865L137.885 59.8458L139.382 57.2865H141.271L138.933 61.072L141.364 65H139.475L137.906 62.3338L136.338 65H134.442L136.865 61.072L134.534 57.2865H136.416ZM148.173 57.2865V58.5412H143.825V57.2865H148.173ZM145.079 55.3974H146.797V62.8685C146.797 63.1061 146.831 63.2891 146.897 63.4174C146.968 63.541 147.066 63.6241 147.189 63.6669C147.313 63.7097 147.458 63.7311 147.624 63.7311C147.743 63.7311 147.857 63.7239 147.967 63.7097C148.076 63.6954 148.164 63.6812 148.23 63.6669L148.237 64.9786C148.095 65.0214 147.928 65.0594 147.738 65.0927C147.553 65.1259 147.339 65.1426 147.097 65.1426C146.702 65.1426 146.353 65.0737 146.049 64.9358C145.745 64.7933 145.507 64.5628 145.336 64.2443C145.165 63.9259 145.079 63.5029 145.079 62.9754V55.3974ZM153.528 57.2865V65H151.803V57.2865H153.528ZM151.689 55.2619C151.689 55.0005 151.775 54.7843 151.946 54.6132C152.122 54.4373 152.364 54.3494 152.673 54.3494C152.977 54.3494 153.217 54.4373 153.393 54.6132C153.569 54.7843 153.657 55.0005 153.657 55.2619C153.657 55.5186 153.569 55.7324 153.393 55.9035C153.217 56.0746 152.977 56.1602 152.673 56.1602C152.364 56.1602 152.122 56.0746 151.946 55.9035C151.775 55.7324 151.689 55.5186 151.689 55.2619ZM159.925 65H158.206V56.5451C158.206 55.9701 158.313 55.4877 158.527 55.0979C158.746 54.7035 159.057 54.4064 159.461 54.2068C159.865 54.0025 160.343 53.9003 160.894 53.9003C161.065 53.9003 161.234 53.9122 161.4 53.9359C161.567 53.9549 161.728 53.9858 161.885 54.0286L161.842 55.3546C161.747 55.3308 161.643 55.3142 161.529 55.3047C161.419 55.2952 161.3 55.2904 161.172 55.2904C160.911 55.2904 160.685 55.3403 160.495 55.4401C160.309 55.5352 160.167 55.6754 160.067 55.8607C159.972 56.0461 159.925 56.2742 159.925 56.5451V65ZM161.514 57.2865V58.5412H157.023V57.2865H161.514ZM167.19 64.1588L169.286 57.2865H171.125L168.032 66.1763C167.96 66.3664 167.868 66.5731 167.754 66.7965C167.639 67.0199 167.49 67.2313 167.304 67.431C167.124 67.6353 166.898 67.7993 166.627 67.9229C166.356 68.0512 166.028 68.1153 165.643 68.1153C165.491 68.1153 165.344 68.1011 165.201 68.0726C165.064 68.0488 164.933 68.0227 164.809 67.9941L164.802 66.6824C164.85 66.6872 164.907 66.6919 164.973 66.6967C165.045 66.7014 165.102 66.7038 165.144 66.7038C165.429 66.7038 165.667 66.6682 165.857 66.5969C166.047 66.5303 166.202 66.421 166.321 66.2689C166.444 66.1169 166.549 65.9125 166.634 65.6559L167.19 64.1588ZM166.007 57.2865L167.839 63.0609L168.146 64.8717L166.955 65.1782L164.153 57.2865H166.007ZM183.661 57.2865V58.5412H179.312V57.2865H183.661ZM180.567 55.3974H182.285V62.8685C182.285 63.1061 182.318 63.2891 182.385 63.4174C182.456 63.541 182.554 63.6241 182.677 63.6669C182.801 63.7097 182.946 63.7311 183.112 63.7311C183.231 63.7311 183.345 63.7239 183.454 63.7097C183.564 63.6954 183.651 63.6812 183.718 63.6669L183.725 64.9786C183.583 65.0214 183.416 65.0594 183.226 65.0927C183.041 65.1259 182.827 65.1426 182.584 65.1426C182.19 65.1426 181.841 65.0737 181.537 64.9358C181.232 64.7933 180.995 64.5628 180.824 64.2443C180.653 63.9259 180.567 63.5029 180.567 62.9754V55.3974ZM190.577 65.1426C190.007 65.1426 189.491 65.0499 189.03 64.8646C188.574 64.6744 188.184 64.4107 187.861 64.0732C187.543 63.7358 187.298 63.339 187.127 62.8827C186.956 62.4265 186.87 61.9346 186.87 61.407V61.1219C186.87 60.5183 186.958 59.9717 187.134 59.4822C187.31 58.9927 187.555 58.5745 187.868 58.2275C188.182 57.8758 188.553 57.6073 188.981 57.422C189.408 57.2366 189.872 57.1439 190.371 57.1439C190.922 57.1439 191.404 57.2366 191.818 57.422C192.231 57.6073 192.573 57.8687 192.844 58.2062C193.12 58.5388 193.324 58.9357 193.457 59.3967C193.595 59.8577 193.664 60.3662 193.664 60.9223V61.6565H187.704V60.4232H191.968V60.2878C191.958 59.9789 191.896 59.689 191.782 59.4181C191.673 59.1472 191.504 58.9285 191.276 58.7622C191.048 58.5959 190.744 58.5127 190.364 58.5127C190.078 58.5127 189.824 58.5745 189.601 58.698C189.382 58.8169 189.199 58.9903 189.052 59.2185C188.904 59.4466 188.79 59.7222 188.71 60.0454C188.634 60.3638 188.596 60.7227 188.596 61.1219V61.407C188.596 61.7445 188.641 62.0581 188.731 62.348C188.826 62.6332 188.964 62.8827 189.144 63.0966C189.325 63.3104 189.544 63.4792 189.8 63.6027C190.057 63.7215 190.349 63.781 190.677 63.781C191.091 63.781 191.459 63.6978 191.782 63.5314C192.105 63.3651 192.386 63.1299 192.623 62.8257L193.529 63.7025C193.362 63.9449 193.146 64.1778 192.88 64.4012C192.614 64.6198 192.288 64.798 191.903 64.9358C191.523 65.0737 191.081 65.1426 190.577 65.1426ZM200.345 63.7738C200.626 63.7738 200.878 63.7192 201.101 63.6099C201.329 63.4958 201.512 63.339 201.65 63.1394C201.793 62.9397 201.871 62.7092 201.885 62.4479H203.504C203.494 62.9469 203.347 63.4007 203.062 63.8095C202.776 64.2182 202.399 64.5437 201.928 64.7861C201.458 65.0238 200.937 65.1426 200.367 65.1426C199.777 65.1426 199.264 65.0428 198.827 64.8432C198.39 64.6388 198.026 64.3584 197.736 64.002C197.446 63.6455 197.228 63.2344 197.08 62.7687C196.938 62.3029 196.867 61.8039 196.867 61.2716V61.0221C196.867 60.4898 196.938 59.9908 197.08 59.525C197.228 59.0545 197.446 58.641 197.736 58.2846C198.026 57.9281 198.39 57.6501 198.827 57.4505C199.264 57.2461 199.775 57.1439 200.36 57.1439C200.978 57.1439 201.519 57.2675 201.985 57.5146C202.451 57.757 202.817 58.0968 203.083 58.5341C203.354 58.9666 203.494 59.4703 203.504 60.0454H201.885C201.871 59.7603 201.8 59.5036 201.671 59.2755C201.548 59.0426 201.372 58.8573 201.144 58.7194C200.92 58.5816 200.652 58.5127 200.338 58.5127C199.991 58.5127 199.704 58.584 199.476 58.7266C199.248 58.8644 199.069 59.0545 198.941 59.2969C198.813 59.5345 198.72 59.803 198.663 60.1024C198.611 60.3971 198.585 60.7036 198.585 61.0221V61.2716C198.585 61.59 198.611 61.8989 198.663 62.1983C198.715 62.4978 198.806 62.7663 198.934 63.0039C199.067 63.2368 199.248 63.4245 199.476 63.5671C199.704 63.7049 199.994 63.7738 200.345 63.7738ZM208.709 54.05V65H206.998V54.05H208.709ZM208.41 60.8581L207.854 60.851C207.858 60.3187 207.932 59.8268 208.075 59.3753C208.222 58.9238 208.426 58.5317 208.688 58.199C208.954 57.8616 209.272 57.6026 209.643 57.422C210.014 57.2366 210.425 57.1439 210.876 57.1439C211.256 57.1439 211.599 57.1962 211.903 57.3008C212.212 57.4053 212.478 57.5741 212.701 57.8069C212.925 58.0351 213.093 58.3345 213.207 58.7052C213.326 59.0711 213.386 59.5179 213.386 60.0454V65H211.66V60.0312C211.66 59.6604 211.606 59.3658 211.496 59.1472C211.392 58.9285 211.237 58.7717 211.033 58.6767C210.829 58.5769 210.579 58.527 210.285 58.527C209.976 58.527 209.702 58.5887 209.465 58.7123C209.232 58.8359 209.037 59.0046 208.88 59.2185C208.723 59.4323 208.605 59.6795 208.524 59.9599C208.448 60.2403 208.41 60.5397 208.41 60.8581ZM219.019 58.9333V65H217.301V57.2865H218.919L219.019 58.9333ZM218.712 60.8581L218.156 60.851C218.161 60.3044 218.237 59.803 218.384 59.3468C218.537 58.8905 218.746 58.4984 219.012 58.1705C219.283 57.8426 219.606 57.5907 219.981 57.4148C220.357 57.2342 220.775 57.1439 221.236 57.1439C221.607 57.1439 221.942 57.1962 222.241 57.3008C222.545 57.4006 222.804 57.5646 223.018 57.7927C223.237 58.0208 223.403 58.3178 223.517 58.6838C223.631 59.045 223.688 59.4894 223.688 60.0169V65H221.963V60.0098C221.963 59.6391 221.908 59.3468 221.799 59.1329C221.695 58.9143 221.54 58.7598 221.336 58.6695C221.136 58.5745 220.887 58.527 220.587 58.527C220.293 58.527 220.029 58.5887 219.796 58.7123C219.563 58.8359 219.366 59.0046 219.204 59.2185C219.047 59.4323 218.926 59.6795 218.841 59.9599C218.755 60.2403 218.712 60.5397 218.712 60.8581ZM227.304 61.2288V61.0648C227.304 60.5088 227.385 59.9931 227.546 59.5179C227.708 59.0379 227.941 58.622 228.245 58.2703C228.554 57.9139 228.929 57.6382 229.371 57.4434C229.818 57.2437 230.322 57.1439 230.883 57.1439C231.448 57.1439 231.952 57.2437 232.394 57.4434C232.841 57.6382 233.219 57.9139 233.528 58.2703C233.837 58.622 234.072 59.0379 234.233 59.5179C234.395 59.9931 234.476 60.5088 234.476 61.0648V61.2288C234.476 61.7849 234.395 62.3005 234.233 62.7758C234.072 63.251 233.837 63.6669 233.528 64.0233C233.219 64.375 232.843 64.6507 232.401 64.8503C231.959 65.0451 231.458 65.1426 230.897 65.1426C230.332 65.1426 229.825 65.0451 229.379 64.8503C228.937 64.6507 228.561 64.375 228.252 64.0233C227.943 63.6669 227.708 63.251 227.546 62.7758C227.385 62.3005 227.304 61.7849 227.304 61.2288ZM229.022 61.0648V61.2288C229.022 61.5757 229.058 61.9037 229.129 62.2126C229.2 62.5215 229.312 62.7924 229.464 63.0253C229.616 63.2582 229.811 63.4411 230.049 63.5742C230.286 63.7073 230.569 63.7738 230.897 63.7738C231.215 63.7738 231.491 63.7073 231.724 63.5742C231.962 63.4411 232.157 63.2582 232.309 63.0253C232.461 62.7924 232.572 62.5215 232.644 62.2126C232.72 61.9037 232.758 61.5757 232.758 61.2288V61.0648C232.758 60.7227 232.72 60.3995 232.644 60.0953C232.572 59.7864 232.458 59.5131 232.301 59.2755C232.149 59.0379 231.955 58.8525 231.717 58.7194C231.484 58.5816 231.206 58.5127 230.883 58.5127C230.56 58.5127 230.279 58.5816 230.042 58.7194C229.809 58.8525 229.616 59.0379 229.464 59.2755C229.312 59.5131 229.2 59.7864 229.129 60.0953C229.058 60.3995 229.022 60.7227 229.022 61.0648ZM239.945 54.05V65H238.22V54.05H239.945ZM243.689 61.2288V61.0648C243.689 60.5088 243.77 59.9931 243.932 59.5179C244.093 59.0379 244.326 58.622 244.63 58.2703C244.939 57.9139 245.315 57.6382 245.757 57.4434C246.203 57.2437 246.707 57.1439 247.268 57.1439C247.833 57.1439 248.337 57.2437 248.779 57.4434C249.226 57.6382 249.604 57.9139 249.913 58.2703C250.222 58.622 250.457 59.0379 250.618 59.5179C250.78 59.9931 250.861 60.5088 250.861 61.0648V61.2288C250.861 61.7849 250.78 62.3005 250.618 62.7758C250.457 63.251 250.222 63.6669 249.913 64.0233C249.604 64.375 249.228 64.6507 248.786 64.8503C248.344 65.0451 247.843 65.1426 247.282 65.1426C246.717 65.1426 246.21 65.0451 245.764 64.8503C245.322 64.6507 244.946 64.375 244.637 64.0233C244.328 63.6669 244.093 63.251 243.932 62.7758C243.77 62.3005 243.689 61.7849 243.689 61.2288ZM245.407 61.0648V61.2288C245.407 61.5757 245.443 61.9037 245.514 62.2126C245.585 62.5215 245.697 62.7924 245.849 63.0253C246.001 63.2582 246.196 63.4411 246.434 63.5742C246.671 63.7073 246.954 63.7738 247.282 63.7738C247.601 63.7738 247.876 63.7073 248.109 63.5742C248.347 63.4411 248.542 63.2582 248.694 63.0253C248.846 62.7924 248.957 62.5215 249.029 62.2126C249.105 61.9037 249.143 61.5757 249.143 61.2288V61.0648C249.143 60.7227 249.105 60.3995 249.029 60.0953C248.957 59.7864 248.843 59.5131 248.687 59.2755C248.534 59.0379 248.34 58.8525 248.102 58.7194C247.869 58.5816 247.591 58.5127 247.268 58.5127C246.945 58.5127 246.664 58.5816 246.427 58.7194C246.194 58.8525 246.001 59.0379 245.849 59.2755C245.697 59.5131 245.585 59.7864 245.514 60.0953C245.443 60.3995 245.407 60.7227 245.407 61.0648ZM259.431 57.2865H260.992V64.7861C260.992 65.48 260.845 66.0693 260.55 66.5541C260.256 67.0389 259.845 67.4072 259.317 67.6591C258.79 67.9157 258.179 68.044 257.485 68.044C257.19 68.044 256.862 68.0013 256.501 67.9157C256.145 67.8302 255.798 67.6924 255.46 67.5022C255.128 67.3169 254.85 67.0721 254.626 66.768L255.432 65.7557C255.708 66.0836 256.012 66.3236 256.344 66.4757C256.677 66.6278 257.026 66.7038 257.392 66.7038C257.787 66.7038 258.122 66.6301 258.398 66.4828C258.678 66.3402 258.894 66.1287 259.046 65.8483C259.198 65.5679 259.274 65.2257 259.274 64.8218V59.0331L259.431 57.2865ZM254.191 61.2288V61.0791C254.191 60.4945 254.263 59.9622 254.405 59.4822C254.548 58.9975 254.752 58.5816 255.018 58.2347C255.285 57.883 255.608 57.6145 255.988 57.4291C256.368 57.239 256.798 57.1439 257.278 57.1439C257.777 57.1439 258.203 57.2342 258.554 57.4148C258.911 57.5954 259.208 57.8545 259.445 58.1919C259.683 58.5246 259.868 58.9238 260.002 59.3896C260.139 59.8506 260.242 60.3638 260.308 60.9294V61.407C260.246 61.9583 260.142 62.4621 259.994 62.9184C259.847 63.3746 259.652 63.7691 259.41 64.1018C259.167 64.4344 258.868 64.6911 258.512 64.8717C258.16 65.0523 257.744 65.1426 257.264 65.1426C256.794 65.1426 256.368 65.0451 255.988 64.8503C255.613 64.6554 255.289 64.3822 255.018 64.0305C254.752 63.6788 254.548 63.2653 254.405 62.79C254.263 62.31 254.191 61.7896 254.191 61.2288ZM255.91 61.0791V61.2288C255.91 61.5805 255.943 61.9084 256.009 62.2126C256.081 62.5168 256.188 62.7853 256.33 63.0182C256.477 63.2463 256.663 63.4269 256.886 63.56C257.114 63.6883 257.383 63.7524 257.692 63.7524C258.096 63.7524 258.426 63.6669 258.683 63.4958C258.944 63.3247 259.144 63.0942 259.282 62.8043C259.424 62.5096 259.524 62.1817 259.581 61.8205V60.5302C259.552 60.2498 259.493 59.9884 259.403 59.746C259.317 59.5036 259.201 59.2921 259.053 59.1115C258.906 58.9262 258.721 58.7836 258.497 58.6838C258.274 58.5792 258.01 58.527 257.706 58.527C257.397 58.527 257.129 58.5935 256.9 58.7266C256.672 58.8596 256.485 59.0426 256.337 59.2755C256.195 59.5084 256.088 59.7793 256.016 60.0882C255.945 60.3971 255.91 60.7274 255.91 61.0791ZM266.804 57.2865V65H265.079V57.2865H266.804ZM264.965 55.2619C264.965 55.0005 265.05 54.7843 265.221 54.6132C265.397 54.4373 265.64 54.3494 265.948 54.3494C266.253 54.3494 266.493 54.4373 266.668 54.6132C266.844 54.7843 266.932 55.0005 266.932 55.2619C266.932 55.5186 266.844 55.7324 266.668 55.9035C266.493 56.0746 266.253 56.1602 265.948 56.1602C265.64 56.1602 265.397 56.0746 265.221 55.9035C265.05 55.7324 264.965 55.5186 264.965 55.2619ZM274.276 65.1426C273.706 65.1426 273.191 65.0499 272.73 64.8646C272.273 64.6744 271.884 64.4107 271.56 64.0732C271.242 63.7358 270.997 63.339 270.826 62.8827C270.655 62.4265 270.569 61.9346 270.569 61.407V61.1219C270.569 60.5183 270.657 59.9717 270.833 59.4822C271.009 58.9927 271.254 58.5745 271.567 58.2275C271.881 57.8758 272.252 57.6073 272.68 57.422C273.107 57.2366 273.571 57.1439 274.07 57.1439C274.621 57.1439 275.103 57.2366 275.517 57.422C275.93 57.6073 276.273 57.8687 276.543 58.2062C276.819 58.5388 277.023 58.9357 277.157 59.3967C277.294 59.8577 277.363 60.3662 277.363 60.9223V61.6565H271.404V60.4232H275.667V60.2878C275.657 59.9789 275.595 59.689 275.481 59.4181C275.372 59.1472 275.203 58.9285 274.975 58.7622C274.747 58.5959 274.443 58.5127 274.063 58.5127C273.777 58.5127 273.523 58.5745 273.3 58.698C273.081 58.8169 272.898 58.9903 272.751 59.2185C272.604 59.4466 272.489 59.7222 272.409 60.0454C272.333 60.3638 272.295 60.7227 272.295 61.1219V61.407C272.295 61.7445 272.34 62.0581 272.43 62.348C272.525 62.6332 272.663 62.8827 272.844 63.0966C273.024 63.3104 273.243 63.4792 273.499 63.6027C273.756 63.7215 274.048 63.781 274.376 63.781C274.79 63.781 275.158 63.6978 275.481 63.5314C275.804 63.3651 276.085 63.1299 276.322 62.8257L277.228 63.7025C277.062 63.9449 276.845 64.1778 276.579 64.4012C276.313 64.6198 275.987 64.798 275.602 64.9358C275.222 65.0737 274.78 65.1426 274.276 65.1426ZM285.221 62.9112C285.221 62.7401 285.178 62.5857 285.092 62.4479C285.007 62.3053 284.843 62.177 284.601 62.0629C284.363 61.9488 284.011 61.8443 283.545 61.7492C283.137 61.6589 282.761 61.552 282.419 61.4284C282.082 61.3001 281.792 61.1456 281.549 60.965C281.307 60.7844 281.119 60.5706 280.986 60.3234C280.853 60.0763 280.787 59.7911 280.787 59.468C280.787 59.1543 280.856 58.8573 280.993 58.5769C281.131 58.2965 281.328 58.0493 281.585 57.8354C281.842 57.6216 282.153 57.4529 282.519 57.3293C282.89 57.2057 283.303 57.1439 283.759 57.1439C284.406 57.1439 284.959 57.2533 285.42 57.4719C285.886 57.6857 286.243 57.978 286.49 58.3487C286.737 58.7147 286.86 59.1282 286.86 59.5892H285.142C285.142 59.3848 285.09 59.1947 284.986 59.0188C284.886 58.8382 284.734 58.6933 284.529 58.584C284.325 58.4699 284.068 58.4129 283.759 58.4129C283.465 58.4129 283.22 58.4604 283.025 58.5555C282.835 58.6458 282.692 58.7646 282.597 58.9119C282.507 59.0592 282.462 59.2208 282.462 59.3967C282.462 59.525 282.486 59.6414 282.533 59.746C282.585 59.8458 282.671 59.9385 282.79 60.024C282.909 60.1048 283.07 60.1809 283.275 60.2521C283.484 60.3234 283.745 60.3924 284.059 60.4589C284.648 60.5825 285.154 60.7417 285.577 60.9365C286.005 61.1266 286.333 61.3738 286.561 61.6779C286.789 61.9773 286.903 62.3576 286.903 62.8186C286.903 63.1607 286.83 63.4744 286.682 63.7596C286.54 64.04 286.331 64.2847 286.055 64.4938C285.779 64.6982 285.449 64.8574 285.064 64.9715C284.684 65.0855 284.256 65.1426 283.781 65.1426C283.082 65.1426 282.49 65.019 282.006 64.7719C281.521 64.52 281.153 64.1992 280.901 63.8095C280.654 63.415 280.53 63.0063 280.53 62.5833H282.191C282.21 62.9017 282.298 63.156 282.455 63.3461C282.616 63.5314 282.816 63.6669 283.054 63.7524C283.296 63.8332 283.545 63.8736 283.802 63.8736C284.111 63.8736 284.37 63.8332 284.579 63.7524C284.788 63.6669 284.947 63.5528 285.057 63.4103C285.166 63.2629 285.221 63.0966 285.221 62.9112ZM300.75 62.9112C300.75 62.7401 300.708 62.5857 300.622 62.4479C300.537 62.3053 300.373 62.177 300.13 62.0629C299.893 61.9488 299.541 61.8443 299.075 61.7492C298.666 61.6589 298.291 61.552 297.949 61.4284C297.611 61.3001 297.321 61.1456 297.079 60.965C296.837 60.7844 296.649 60.5706 296.516 60.3234C296.383 60.0763 296.316 59.7911 296.316 59.468C296.316 59.1543 296.385 58.8573 296.523 58.5769C296.661 58.2965 296.858 58.0493 297.115 57.8354C297.371 57.6216 297.683 57.4529 298.049 57.3293C298.419 57.2057 298.833 57.1439 299.289 57.1439C299.935 57.1439 300.489 57.2533 300.95 57.4719C301.416 57.6857 301.772 57.978 302.019 58.3487C302.266 58.7147 302.39 59.1282 302.39 59.5892H300.672C300.672 59.3848 300.62 59.1947 300.515 59.0188C300.415 58.8382 300.263 58.6933 300.059 58.584C299.855 58.4699 299.598 58.4129 299.289 58.4129C298.994 58.4129 298.75 58.4604 298.555 58.5555C298.365 58.6458 298.222 58.7646 298.127 58.9119C298.037 59.0592 297.991 59.2208 297.991 59.3967C297.991 59.525 298.015 59.6414 298.063 59.746C298.115 59.8458 298.201 59.9385 298.319 60.024C298.438 60.1048 298.6 60.1809 298.804 60.2521C299.013 60.3234 299.275 60.3924 299.588 60.4589C300.178 60.5825 300.684 60.7417 301.107 60.9365C301.535 61.1266 301.862 61.3738 302.091 61.6779C302.319 61.9773 302.433 62.3576 302.433 62.8186C302.433 63.1607 302.359 63.4744 302.212 63.7596C302.069 64.04 301.86 64.2847 301.584 64.4938C301.309 64.6982 300.979 64.8574 300.594 64.9715C300.213 65.0855 299.786 65.1426 299.31 65.1426C298.612 65.1426 298.02 65.019 297.535 64.7719C297.05 64.52 296.682 64.1992 296.43 63.8095C296.183 63.415 296.06 63.0063 296.06 62.5833H297.721C297.74 62.9017 297.828 63.156 297.984 63.3461C298.146 63.5314 298.346 63.6669 298.583 63.7524C298.826 63.8332 299.075 63.8736 299.332 63.8736C299.641 63.8736 299.9 63.8332 300.109 63.7524C300.318 63.6669 300.477 63.5528 300.586 63.4103C300.696 63.2629 300.75 63.0966 300.75 62.9112ZM310.768 63.1821V57.2865H312.493V65H310.868L310.768 63.1821ZM311.01 61.5781L311.588 61.5639C311.588 62.0819 311.531 62.5595 311.417 62.9968C311.303 63.4293 311.127 63.8071 310.889 64.1303C310.651 64.4487 310.347 64.6982 309.977 64.8788C309.606 65.0547 309.162 65.1426 308.643 65.1426C308.268 65.1426 307.923 65.0879 307.61 64.9786C307.296 64.8693 307.025 64.7006 306.797 64.4725C306.574 64.2443 306.4 63.9473 306.277 63.5813C306.153 63.2154 306.091 62.7782 306.091 62.2696V57.2865H307.809V62.2839C307.809 62.5643 307.843 62.7995 307.909 62.9896C307.976 63.175 308.066 63.3247 308.18 63.4388C308.294 63.5528 308.427 63.6336 308.579 63.6812C308.731 63.7287 308.893 63.7524 309.064 63.7524C309.554 63.7524 309.939 63.6574 310.219 63.4673C310.504 63.2724 310.706 63.011 310.825 62.6831C310.949 62.3552 311.01 61.9868 311.01 61.5781ZM316.451 54.05H318.169V63.3532L318.005 65H316.451V54.05ZM323.202 61.072V61.2217C323.202 61.792 323.138 62.3172 323.01 62.7972C322.886 63.2724 322.696 63.6859 322.439 64.0376C322.187 64.3893 321.874 64.6626 321.498 64.8574C321.128 65.0475 320.698 65.1426 320.208 65.1426C319.728 65.1426 319.31 65.0523 318.953 64.8717C318.597 64.6911 318.297 64.4344 318.055 64.1018C317.817 63.7691 317.625 63.3722 317.478 62.9112C317.33 62.4502 317.226 61.9417 317.164 61.3856V60.908C317.226 60.3472 317.33 59.8387 317.478 59.3824C317.625 58.9214 317.817 58.5246 318.055 58.1919C318.297 57.8545 318.595 57.5954 318.946 57.4148C319.303 57.2342 319.718 57.1439 320.194 57.1439C320.688 57.1439 321.123 57.239 321.498 57.4291C321.879 57.6192 322.195 57.8901 322.446 58.2418C322.698 58.5887 322.886 59.0022 323.01 59.4822C323.138 59.9622 323.202 60.4922 323.202 61.072ZM321.484 61.2217V61.072C321.484 60.725 321.456 60.3995 321.399 60.0953C321.342 59.7864 321.246 59.5155 321.113 59.2826C320.985 59.0497 320.809 58.8668 320.586 58.7337C320.367 58.5959 320.094 58.527 319.766 58.527C319.462 58.527 319.2 58.5792 318.982 58.6838C318.763 58.7883 318.58 58.9309 318.433 59.1115C318.286 59.2921 318.169 59.5012 318.084 59.7389C318.003 59.9765 317.948 60.2331 317.92 60.5088V61.7991C317.962 62.1556 318.053 62.4835 318.191 62.7829C318.333 63.0776 318.533 63.3152 318.789 63.4958C319.046 63.6716 319.376 63.7596 319.78 63.7596C320.099 63.7596 320.367 63.6954 320.586 63.5671C320.804 63.4388 320.978 63.2605 321.106 63.0324C321.239 62.7995 321.334 62.5286 321.391 62.2197C321.453 61.9108 321.484 61.5781 321.484 61.2217ZM331.174 62.9112C331.174 62.7401 331.131 62.5857 331.045 62.4479C330.96 62.3053 330.796 62.177 330.553 62.0629C330.316 61.9488 329.964 61.8443 329.498 61.7492C329.09 61.6589 328.714 61.552 328.372 61.4284C328.035 61.3001 327.745 61.1456 327.502 60.965C327.26 60.7844 327.072 60.5706 326.939 60.3234C326.806 60.0763 326.74 59.7911 326.74 59.468C326.74 59.1543 326.808 58.8573 326.946 58.5769C327.084 58.2965 327.281 58.0493 327.538 57.8354C327.795 57.6216 328.106 57.4529 328.472 57.3293C328.843 57.2057 329.256 57.1439 329.712 57.1439C330.359 57.1439 330.912 57.2533 331.373 57.4719C331.839 57.6857 332.196 57.978 332.443 58.3487C332.69 58.7147 332.813 59.1282 332.813 59.5892H331.095C331.095 59.3848 331.043 59.1947 330.938 59.0188C330.839 58.8382 330.687 58.6933 330.482 58.584C330.278 58.4699 330.021 58.4129 329.712 58.4129C329.418 58.4129 329.173 58.4604 328.978 58.5555C328.788 58.6458 328.645 58.7646 328.55 58.9119C328.46 59.0592 328.415 59.2208 328.415 59.3967C328.415 59.525 328.439 59.6414 328.486 59.746C328.538 59.8458 328.624 59.9385 328.743 60.024C328.862 60.1048 329.023 60.1809 329.228 60.2521C329.437 60.3234 329.698 60.3924 330.012 60.4589C330.601 60.5825 331.107 60.7417 331.53 60.9365C331.958 61.1266 332.286 61.3738 332.514 61.6779C332.742 61.9773 332.856 62.3576 332.856 62.8186C332.856 63.1607 332.782 63.4744 332.635 63.7596C332.493 64.04 332.283 64.2847 332.008 64.4938C331.732 64.6982 331.402 64.8574 331.017 64.9715C330.637 65.0855 330.209 65.1426 329.734 65.1426C329.035 65.1426 328.443 65.019 327.959 64.7719C327.474 64.52 327.105 64.1992 326.854 63.8095C326.606 63.415 326.483 63.0063 326.483 62.5833H328.144C328.163 62.9017 328.251 63.156 328.408 63.3461C328.569 63.5314 328.769 63.6669 329.007 63.7524C329.249 63.8332 329.498 63.8736 329.755 63.8736C330.064 63.8736 330.323 63.8332 330.532 63.7524C330.741 63.6669 330.9 63.5528 331.01 63.4103C331.119 63.2629 331.174 63.0966 331.174 62.9112ZM338.39 57.2865V65H336.664V57.2865H338.39ZM336.55 55.2619C336.55 55.0005 336.636 54.7843 336.807 54.6132C336.983 54.4373 337.225 54.3494 337.534 54.3494C337.838 54.3494 338.078 54.4373 338.254 54.6132C338.43 54.7843 338.518 55.0005 338.518 55.2619C338.518 55.5186 338.43 55.7324 338.254 55.9035C338.078 56.0746 337.838 56.1602 337.534 56.1602C337.225 56.1602 336.983 56.0746 336.807 55.9035C336.636 55.7324 336.55 55.5186 336.55 55.2619ZM347.167 63.4031V54.05H348.892V65H347.331L347.167 63.4031ZM342.148 61.2288V61.0791C342.148 60.4945 342.217 59.9622 342.355 59.4822C342.492 58.9975 342.692 58.5816 342.954 58.2347C343.215 57.883 343.533 57.6145 343.909 57.4291C344.284 57.239 344.707 57.1439 345.178 57.1439C345.643 57.1439 346.052 57.2342 346.404 57.4148C346.756 57.5954 347.055 57.8545 347.302 58.1919C347.549 58.5246 347.747 58.9238 347.894 59.3896C348.041 59.8506 348.146 60.3638 348.208 60.9294V61.407C348.146 61.9583 348.041 62.4621 347.894 62.9184C347.747 63.3746 347.549 63.7691 347.302 64.1018C347.055 64.4344 346.753 64.6911 346.397 64.8717C346.045 65.0523 345.634 65.1426 345.163 65.1426C344.698 65.1426 344.277 65.0451 343.902 64.8503C343.531 64.6554 343.215 64.3822 342.954 64.0305C342.692 63.6788 342.492 63.2653 342.355 62.79C342.217 62.31 342.148 61.7896 342.148 61.2288ZM343.866 61.0791V61.2288C343.866 61.5805 343.897 61.9084 343.959 62.2126C344.025 62.5168 344.127 62.7853 344.265 63.0182C344.403 63.2463 344.581 63.4269 344.8 63.56C345.023 63.6883 345.289 63.7524 345.598 63.7524C345.988 63.7524 346.309 63.6669 346.561 63.4958C346.813 63.3247 347.01 63.0942 347.152 62.8043C347.3 62.5096 347.4 62.1817 347.452 61.8205V60.5302C347.423 60.2498 347.364 59.9884 347.274 59.746C347.188 59.5036 347.072 59.2921 346.924 59.1115C346.777 58.9262 346.594 58.7836 346.375 58.6838C346.162 58.5792 345.907 58.527 345.613 58.527C345.299 58.527 345.033 58.5935 344.814 58.7266C344.596 58.8596 344.415 59.0426 344.272 59.2755C344.135 59.5084 344.032 59.7793 343.966 60.0882C343.899 60.3971 343.866 60.7274 343.866 61.0791ZM354.718 57.2865V65H352.992V57.2865H354.718ZM352.878 55.2619C352.878 55.0005 352.964 54.7843 353.135 54.6132C353.311 54.4373 353.553 54.3494 353.862 54.3494C354.166 54.3494 354.406 54.4373 354.582 54.6132C354.758 54.7843 354.846 55.0005 354.846 55.2619C354.846 55.5186 354.758 55.7324 354.582 55.9035C354.406 56.0746 354.166 56.1602 353.862 56.1602C353.553 56.1602 353.311 56.0746 353.135 55.9035C352.964 55.7324 352.878 55.5186 352.878 55.2619ZM363.138 63.453V59.7745C363.138 59.4989 363.088 59.2612 362.989 59.0616C362.889 58.862 362.737 58.7076 362.532 58.5982C362.333 58.4889 362.081 58.4343 361.777 58.4343C361.496 58.4343 361.254 58.4818 361.05 58.5769C360.845 58.6719 360.686 58.8002 360.572 58.9618C360.458 59.1234 360.401 59.3064 360.401 59.5107H358.69C358.69 59.2066 358.764 58.9119 358.911 58.6268C359.058 58.3416 359.272 58.0873 359.552 57.864C359.833 57.6406 360.168 57.4647 360.558 57.3364C360.947 57.2081 361.385 57.1439 361.869 57.1439C362.449 57.1439 362.962 57.2414 363.409 57.4362C363.861 57.6311 364.215 57.9257 364.471 58.3202C364.733 58.7099 364.863 59.1994 364.863 59.7888V63.2178C364.863 63.5695 364.887 63.8855 364.935 64.1659C364.987 64.4416 365.061 64.6816 365.156 64.8859V65H363.395C363.314 64.8146 363.25 64.5794 363.202 64.2942C363.16 64.0043 363.138 63.7239 363.138 63.453ZM363.388 60.3092L363.402 61.3714H362.169C361.85 61.3714 361.57 61.4023 361.328 61.4641C361.085 61.5211 360.883 61.6066 360.722 61.7207C360.56 61.8348 360.439 61.9726 360.358 62.1342C360.277 62.2958 360.237 62.4787 360.237 62.6831C360.237 62.8875 360.284 63.0752 360.379 63.2463C360.474 63.4126 360.612 63.5433 360.793 63.6384C360.978 63.7334 361.202 63.781 361.463 63.781C361.815 63.781 362.121 63.7097 362.383 63.5671C362.649 63.4198 362.858 63.2415 363.01 63.0324C363.162 62.8186 363.243 62.6166 363.252 62.4265L363.808 63.1893C363.751 63.3841 363.654 63.5932 363.516 63.8166C363.378 64.04 363.198 64.2538 362.974 64.4582C362.756 64.6578 362.492 64.8218 362.183 64.9501C361.879 65.0784 361.527 65.1426 361.128 65.1426C360.624 65.1426 360.175 65.0428 359.781 64.8432C359.386 64.6388 359.077 64.3655 358.854 64.0233C358.63 63.6764 358.519 63.2843 358.519 62.8471C358.519 62.4383 358.595 62.0771 358.747 61.7635C358.904 61.4451 359.132 61.1789 359.431 60.965C359.735 60.7512 360.106 60.5896 360.543 60.4803C360.981 60.3662 361.48 60.3092 362.04 60.3092H363.388ZM370.575 58.7551V65H368.857V57.2865H370.497L370.575 58.7551ZM372.935 57.2366L372.921 58.8335C372.816 58.8145 372.702 58.8002 372.578 58.7907C372.46 58.7812 372.341 58.7765 372.222 58.7765C371.927 58.7765 371.668 58.8192 371.445 58.9048C371.222 58.9856 371.034 59.1044 370.882 59.2612C370.734 59.4133 370.62 59.5987 370.54 59.8173C370.459 60.0359 370.411 60.2807 370.397 60.5516L370.005 60.5801C370.005 60.0953 370.052 59.6462 370.147 59.2327C370.242 58.8192 370.385 58.4557 370.575 58.142C370.77 57.8283 371.012 57.5836 371.302 57.4077C371.597 57.2319 371.937 57.1439 372.322 57.1439C372.426 57.1439 372.538 57.1535 372.657 57.1725C372.78 57.1915 372.873 57.2129 372.935 57.2366ZM378.568 64.1588L380.664 57.2865H382.503L379.409 66.1763C379.338 66.3664 379.245 66.5731 379.131 66.7965C379.017 67.0199 378.867 67.2313 378.682 67.431C378.502 67.6353 378.276 67.7993 378.005 67.9229C377.734 68.0512 377.406 68.1153 377.021 68.1153C376.869 68.1153 376.722 68.1011 376.579 68.0726C376.441 68.0488 376.311 68.0227 376.187 67.9941L376.18 66.6824C376.227 66.6872 376.284 66.6919 376.351 66.6967C376.422 66.7014 376.479 66.7038 376.522 66.7038C376.807 66.7038 377.045 66.6682 377.235 66.5969C377.425 66.5303 377.58 66.421 377.698 66.2689C377.822 66.1169 377.926 65.9125 378.012 65.6559L378.568 64.1588ZM377.385 57.2865L379.217 63.0609L379.523 64.8717L378.333 65.1782L375.531 57.2865H377.385Z" fill="#162328"/>
</svg>
